# Blender 3.3.0
# www.blender.org
mtllib DUR-EX-3-PAREDE.mtl
o Parede_básica_Genérico_-_200_mm_[289695]
v -7.237733 11.652037 0.000000
v -14.412733 -4.747964 0.000000
v -14.412733 -4.747964 1.000000
v -7.237733 11.652037 1.000000
v -7.019430 11.652037 0.000000
v -7.019430 11.652037 1.000000
v -7.106930 11.452036 1.000000
v -14.106931 -4.547964 1.000000
v -14.194430 -4.747964 1.000000
v -14.194430 -4.747964 0.000000
v -14.106931 -4.547964 0.000000
v -7.106930 11.452036 0.000000
vn -0.9162 0.4008 -0.0000
vn 0.9162 -0.4008 -0.0000
vn -0.0000 -0.0000 -1.0000
vn -0.0000 -0.0000 1.0000
vn -0.0000 -1.0000 -0.0000
vn -0.0000 1.0000 -0.0000
vt -0.214572 0.000000
vt -0.214572 0.328084
vt 53.137154 0.000000
vt 58.515270 0.000000
vt 58.515270 0.328084
vt -0.501646 0.000000
vt 58.515270 3.280840
vt 58.515270 -0.328084
vt -0.501646 3.280840
vt -0.214572 3.280840
vt -0.214572 -0.328084
vt 53.137154 3.280840
vt 0.501646 0.000000
vt -0.501646 -0.328084
vt 52.420937 0.000000
vt 0.501646 3.280840
vt -0.501647 0.328084
vt 52.420937 3.280840
vt -0.214572 3.280840
vt 0.214574 0.328084
vt -57.511978 3.280840
vt 57.511978 0.328084
vt -58.228195 3.280840
vt 58.228195 0.328084
vt 0.214572 3.280840
vt -58.228195 0.000000
vt 58.228195 -0.328084
vt 0.214572 0.000000
vt -57.511978 0.000000
vt 57.511978 -0.328084
vt -0.214572 0.000000
vt 0.214572 -0.328084
s 1
f 4/10/1 1/1/1 2/4/1
f 2/4/1 3/7/1 4/10/1
f 10/26/2 11/29/2 8/21/2
f 8/21/2 9/23/2 10/26/2
f 11/29/2 7/19/2 8/21/2
f 12/31/2 5/13/2 7/19/2
f 6/16/2 7/19/2 5/13/2
f 12/31/2 7/19/2 11/29/2
f 2/5/3 1/2/3 11/30/3
f 11/30/3 1/2/3 12/32/3
f 2/5/3 11/30/3 10/27/3
f 5/14/3 12/32/3 1/2/3
f 3/8/4 8/22/4 4/11/4
f 8/22/4 3/8/4 9/24/4
f 4/11/4 8/22/4 7/20/4
f 7/20/4 6/17/4 4/11/4
f 3/9/5 2/6/5 9/25/5
f 10/28/5 9/25/5 2/6/5
f 6/18/6 5/15/6 1/3/6
f 1/3/6 4/12/6 6/18/6
o Parede_básica_Genérico_-_200_mm_[289766]
v -14.194430 -4.747964 0.000000
v 16.198874 -4.747964 0.000000
v 16.198874 -4.747964 1.000000
v -14.194430 -4.747964 1.000000
v -14.106931 -4.547964 -0.000000
v -14.106931 -4.547964 1.000000
v 15.893069 -4.547964 1.000000
v 16.111372 -4.547964 1.000000
v 16.111372 -4.547964 0.000000
v 15.893069 -4.547964 0.000000
vn -0.0000 -1.0000 -0.0000
vn -0.0000 1.0000 -0.0000
vn -0.0000 -0.0000 -1.0000
vn -0.0000 -0.0000 1.0000
vn -0.9162 0.4008 -0.0000
vn 0.9162 0.4008 -0.0000
vt 0.214572 0.328084
vt 0.214571 0.000000
vt 99.930138 0.000000
vt 99.930130 0.328084
vt -0.501646 0.000000
vt 99.930138 3.280840
vt 99.930130 -0.328084
vt -0.501646 3.280840
vt 0.214575 -0.328084
vt 0.214571 3.280840
vt 0.501646 -0.328084
vt -0.501646 0.000000
vt 0.501646 0.328084
vt -0.501646 3.280840
vt -98.926842 3.280840
vt 98.926842 0.328084
vt -99.643059 3.280840
vt 99.643059 0.328084
vt 0.214572 3.280840
vt -99.643059 0.000000
vt 99.643059 -0.328084
vt 0.214572 0.000000
vt -98.926842 0.000000
vt 98.926842 -0.328084
s 1
f 16/42/7 13/34/7 14/35/7
f 14/35/7 15/38/7 16/42/7
f 20/49/8 21/52/8 19/47/8
f 19/47/8 21/52/8 22/55/8
f 22/55/8 17/44/8 18/46/8
f 22/55/8 18/46/8 19/47/8
f 14/36/9 13/33/9 22/56/9
f 17/43/9 22/56/9 13/33/9
f 22/56/9 21/53/9 14/36/9
f 16/41/10 15/39/10 19/48/10
f 20/50/10 19/48/10 15/39/10
f 19/48/10 18/45/10 16/41/10
f 17/44/11 13/34/11 16/42/11
f 16/42/11 18/46/11 17/44/11
f 15/40/12 14/37/12 21/54/12
f 21/54/12 20/51/12 15/40/12
o Parede_básica_Genérico_-_200_mm_[289833]
v 16.111372 -4.547964 0.000000
v 9.023873 11.652037 0.000000
v 9.023873 11.652037 1.000000
v 16.111372 -4.547964 1.000000
v 15.893069 -4.547964 0.000000
v 15.893069 -4.547964 1.000000
v 8.893070 11.452036 1.000000
v 8.805570 11.652037 1.000000
v 8.805570 11.652037 0.000000
v 8.893070 11.452036 0.000000
vn 0.9162 0.4008 -0.0000
vn -0.9162 -0.4008 -0.0000
vn -0.0000 -0.0000 -1.0000
vn -0.0000 -0.0000 1.0000
vn -0.0000 -1.0000 -0.0000
vn -0.0000 1.0000 -0.0000
vt 0.214572 0.328084
vt 0.214568 0.000000
vt 58.228195 0.000000
vt 58.228195 0.328084
vt -0.214572 0.000000
vt 58.228195 3.280840
vt 58.228195 -0.328084
vt -0.214572 3.280840
vt 0.214574 -0.328084
vt 0.214568 3.280840
vt 0.501646 -0.328084
vt -0.501649 0.000000
vt 0.501645 0.328084
vt -0.501649 3.280840
vt -57.799049 3.280840
vt 57.799049 0.328084
vt -58.515266 3.280840
vt 58.515270 0.328084
vt 0.501646 3.280840
vt -58.515266 0.000000
vt 58.515270 -0.328084
vt 0.501646 0.000000
vt -57.799049 0.000000
vt 57.799049 -0.328084
s 1
f 26/66/13 23/58/13 25/62/13
f 24/59/13 25/62/13 23/58/13
f 30/73/14 31/76/14 29/71/14
f 29/71/14 31/76/14 32/79/14
f 32/79/14 27/68/14 28/70/14
f 32/79/14 28/70/14 29/71/14
f 24/60/15 23/57/15 32/80/15
f 27/67/15 32/80/15 23/57/15
f 32/80/15 31/77/15 24/60/15
f 26/65/16 25/63/16 29/72/16
f 30/74/16 29/72/16 25/63/16
f 29/72/16 28/69/16 26/65/16
f 28/70/17 23/58/17 26/66/17
f 23/58/17 28/70/17 27/68/17
f 25/64/18 24/61/18 31/78/18
f 31/78/18 30/75/18 25/64/18
o Parede_básica_Genérico_-_200_mm_[289891]
v 8.805570 11.652037 0.000000
v -7.019430 11.652037 0.000000
v -7.019430 11.652037 1.000000
v 8.805570 11.652037 1.000000
v 8.893070 11.452036 0.000000
v 8.893070 11.452036 1.000000
v -7.106930 11.452036 1.000000
v -7.106930 11.452036 0.000000
vn -0.0000 1.0000 -0.0000
vn -0.0000 -1.0000 -0.0000
vn -0.0000 -0.0000 -1.0000
vn -0.0000 -0.0000 1.0000
vn -0.9162 0.4008 -0.0000
vn 0.9162 0.4008 -0.0000
vt 0.501646 0.328084
vt 0.501645 0.000000
vt 52.420937 0.000000
vt 52.420937 0.328084
vt 20.710722 0.000000
vt 52.420937 3.280840
vt 52.420937 -0.328084
vt 20.710722 3.280840
vt 0.501646 -0.328084
vt 0.501645 3.280840
vt 0.214572 -0.328084
vt -0.214572 0.000000
vt 0.214571 0.328084
vt -0.214572 3.280840
vt -52.708012 3.280840
vt 52.708012 0.328084
vt 21.426939 3.280840
vt -52.708012 0.000000
vt 52.708012 -0.328084
vt 21.426939 0.000000
s 1
f 36/90/19 33/82/19 35/86/19
f 34/83/19 35/86/19 33/82/19
f 39/95/20 40/98/20 38/94/20
f 37/92/20 38/94/20 40/98/20
f 34/84/21 33/81/21 37/91/21
f 37/91/21 40/99/21 34/84/21
f 36/89/22 35/87/22 39/96/22
f 39/96/22 38/93/22 36/89/22
f 34/85/23 40/100/23 39/97/23
f 39/97/23 35/88/23 34/85/23
f 38/94/24 33/82/24 36/90/24
f 33/82/24 38/94/24 37/92/24
o Parede_básica_Genérico_-_200_mm_[290020]
v -4.406930 1.452036 0.000000
v -4.406930 1.652036 0.000000
v -4.406930 6.252036 0.000000
v -4.406930 6.452036 0.000000
v -4.406930 6.452036 2.000000
v -4.406930 6.252036 2.000000
v -4.406930 1.652036 2.000000
v -4.406930 1.452036 2.000000
v -4.606930 1.452036 0.000000
v -4.606930 1.452036 2.000000
v -4.606930 6.452036 2.000000
v -4.606930 6.452036 0.000000
vn 1.0000 -0.0000 -0.0000
vn -1.0000 -0.0000 -0.0000
vn -0.0000 -0.0000 -1.0000
vn -0.0000 -0.0000 1.0000
vn -0.0000 1.0000 -0.0000
vn -0.0000 -1.0000 -0.0000
vt -0.328084 0.000000
vt -0.328084 0.328084
vt -10.498688 0.000000
vt 0.328084 0.000000
vt 0.328084 0.328084
vt 15.419948 0.000000
vt 15.419948 0.328084
vt 16.076115 0.000000
vt 16.076115 0.328084
vt -0.328084 0.000000
vt 16.076115 6.561680
vt 16.076115 -0.328084
vt -0.328084 6.561680
vt 15.419948 6.561680
vt 15.419948 -0.328084
vt 0.328084 6.561680
vt 0.328084 -0.328084
vt -0.328084 6.561680
vt -0.328083 -0.328084
vt -10.498688 6.561680
vt 0.328084 0.000000
vt -0.328084 -0.328084
vt -11.154856 0.000000
vt 0.328084 6.561680
vt -0.328083 0.328084
vt -11.154856 6.561680
vt -16.076115 6.561680
vt 16.076115 0.328084
vt 0.328084 6.561680
vt -16.076115 0.000000
vt 16.076115 -0.328084
vt 0.328084 0.000000
s 1
f 41/101/25 42/104/25 47/116/25
f 47/116/25 48/118/25 41/101/25
f 42/104/25 43/106/25 47/116/25
f 43/106/25 44/108/25 46/114/25
f 45/111/25 46/114/25 44/108/25
f 43/106/25 46/114/25 47/116/25
f 51/127/26 52/130/26 50/124/26
f 49/121/26 50/124/26 52/130/26
f 44/109/27 43/107/27 52/131/27
f 42/105/27 49/122/27 52/131/27
f 49/122/27 42/105/27 41/102/27
f 42/105/27 52/131/27 43/107/27
f 48/119/28 47/117/28 50/125/28
f 46/115/28 51/128/28 50/125/28
f 51/128/28 46/115/28 45/112/28
f 46/115/28 50/125/28 47/117/28
f 45/113/29 44/110/29 52/132/29
f 52/132/29 51/129/29 45/113/29
f 50/126/30 49/123/30 41/103/30
f 41/103/30 48/120/30 50/126/30
o Parede_básica_Genérico_-_200_mm_[290071]
v -4.406930 6.252036 0.000000
v -1.306930 6.252036 0.000000
v -1.106930 6.252036 0.000000
v -1.106930 6.252036 2.000000
v -1.306930 6.252036 2.000000
v -4.406930 6.252036 2.000000
v -4.406930 6.452036 0.000000
v -4.406930 6.452036 2.000000
v -1.106930 6.452036 2.000000
v -1.106930 6.452036 0.000000
vn -0.0000 -1.0000 -0.0000
vn -0.0000 1.0000 -0.0000
vn -0.0000 -0.0000 -1.0000
vn -0.0000 -0.0000 1.0000
vn -1.0000 -0.0000 -0.0000
vn 1.0000 -0.0000 -0.0000
vt 0.328084 0.328084
vt 0.328084 0.000000
vt 10.498688 0.000000
vt 10.498688 0.328084
vt 11.154856 0.000000
vt 11.154856 0.328084
vt -0.328084 0.000000
vt 11.154856 6.561680
vt 11.154856 -0.328084
vt -0.328084 6.561680
vt 10.498688 6.561680
vt 10.498688 -0.328084
vt 0.328084 -0.328084
vt 0.328084 6.561680
vt 0.328084 -0.328084
vt -0.328083 0.000000
vt 0.328084 0.328084
vt -0.328083 6.561680
vt -11.154856 6.561680
vt 11.154856 0.328084
vt 0.328084 6.561680
vt -11.154856 0.000000
vt 11.154856 -0.328084
vt 0.328084 0.000000
s 1
f 58/146/31 53/134/31 54/135/31
f 58/146/31 54/135/31 57/143/31
f 57/143/31 55/137/31 56/140/31
f 55/137/31 57/143/31 54/135/31
f 61/151/32 62/154/32 60/150/32
f 59/148/32 60/150/32 62/154/32
f 54/136/33 59/147/33 62/155/33
f 59/147/33 54/136/33 53/133/33
f 54/136/33 62/155/33 55/138/33
f 57/144/34 61/152/34 60/149/34
f 61/152/34 57/144/34 56/141/34
f 57/144/34 60/149/34 58/145/34
f 59/148/35 53/134/35 58/146/35
f 58/146/35 60/150/35 59/148/35
f 56/142/36 55/139/36 62/156/36
f 62/156/36 61/153/36 56/142/36
o Parede_básica_Genérico_-_200_mm_[290127]
v -1.306930 6.252036 0.000000
v -1.306930 1.652036 0.000000
v -1.306930 1.452036 -0.000000
v -1.306930 1.452036 2.000000
v -1.306930 1.652036 2.000000
v -1.306930 6.252036 2.000000
v -1.106930 6.252036 0.000000
v -1.106930 6.252036 2.000000
v -1.106930 1.452036 2.000000
v -1.106930 1.452036 0.000000
vn -1.0000 -0.0000 -0.0000
vn 1.0000 -0.0000 -0.0000
vn -0.0000 -0.0000 -1.0000
vn -0.0000 -0.0000 1.0000
vn -0.0000 1.0000 -0.0000
vn -0.0000 -1.0000 -0.0000
vt 0.328084 0.328084
vt 0.328084 0.000000
vt 15.419948 0.000000
vt 15.419948 0.328084
vt 16.076117 -0.000000
vt 16.076115 0.328084
vt -0.328084 0.000000
vt 16.076117 6.561680
vt 16.076115 -0.328084
vt -0.328084 6.561680
vt 15.419948 6.561680
vt 15.419948 -0.328084
vt 0.328084 -0.328084
vt 0.328084 6.561680
vt 0.328084 -0.328084
vt -0.328084 0.000000
vt 0.328084 0.328084
vt -0.328084 6.561680
vt -16.076117 6.561680
vt 16.076115 0.328084
vt 0.328084 6.561680
vt -16.076117 0.000000
vt 16.076115 -0.328084
vt 0.328084 0.000000
s 1
f 68/170/37 63/158/37 64/159/37
f 68/170/37 64/159/37 67/167/37
f 67/167/37 65/161/37 66/164/37
f 65/161/37 67/167/37 64/159/37
f 71/175/38 72/178/38 70/174/38
f 69/172/38 70/174/38 72/178/38
f 64/160/39 69/171/39 72/179/39
f 69/171/39 64/160/39 63/157/39
f 64/160/39 72/179/39 65/162/39
f 67/168/40 71/176/40 70/173/40
f 71/176/40 67/168/40 66/165/40
f 67/168/40 70/173/40 68/169/40
f 69/172/41 63/158/41 68/170/41
f 68/170/41 70/174/41 69/172/41
f 66/166/42 65/163/42 72/180/42
f 72/180/42 71/177/42 66/166/42
o Parede_básica_Genérico_-_200_mm_[290219]
v -1.306930 1.652036 0.000000
v -4.406930 1.652036 0.000000
v -4.406930 1.652036 2.000000
v -1.306930 1.652036 2.000000
v -1.306930 1.452036 0.000000
v -1.306930 1.452036 2.000000
v -4.406930 1.452036 2.000000
v -4.406930 1.452036 0.000000
vn -0.0000 1.0000 -0.0000
vn -0.0000 -1.0000 -0.0000
vn -0.0000 -0.0000 -1.0000
vn -0.0000 -0.0000 1.0000
vn -1.0000 -0.0000 -0.0000
vn 1.0000 -0.0000 -0.0000
vt 0.328084 0.328084
vt 0.328084 0.000000
vt 10.498688 0.000000
vt 10.498688 0.328084
vt -0.328084 0.000000
vt 10.498688 6.561680
vt 10.498688 -0.328084
vt -0.328084 6.561680
vt 0.328084 -0.328084
vt 0.328084 6.561680
vt 0.328084 -0.328084
vt -0.328084 0.000000
vt 0.328084 0.328084
vt -0.328084 6.561680
vt -10.498688 6.561680
vt 10.498688 0.328084
vt 0.328084 6.561680
vt -10.498688 0.000000
vt 10.498688 -0.328084
vt 0.328084 0.000000
s 1
f 76/190/43 73/182/43 75/186/43
f 74/183/43 75/186/43 73/182/43
f 79/195/44 80/198/44 78/194/44
f 77/192/44 78/194/44 80/198/44
f 74/184/45 73/181/45 80/199/45
f 77/191/45 80/199/45 73/181/45
f 76/189/46 75/187/46 79/196/46
f 79/196/46 78/193/46 76/189/46
f 74/185/47 80/200/47 79/197/47
f 79/197/47 75/188/47 74/185/47
f 77/192/48 73/182/48 76/190/48
f 76/190/48 78/194/48 77/192/48
o Parede_básica_Genérico_-_200_mm_[290293]
v 2.893070 6.452036 0.000000
v 2.893070 1.452036 0.000000
v 2.893070 1.452036 2.000000
v 2.893070 6.452036 2.000000
v 3.093070 6.452036 0.000000
v 3.093070 6.452036 2.000000
v 3.093070 6.252036 2.000000
v 3.093070 1.652036 2.000000
v 3.093070 1.452036 2.000000
v 3.093070 1.452036 0.000000
v 3.093070 1.652036 0.000000
v 3.093070 6.252036 0.000000
vn -1.0000 -0.0000 -0.0000
vn 1.0000 -0.0000 -0.0000
vn -0.0000 -0.0000 -1.0000
vn -0.0000 -0.0000 1.0000
vn -0.0000 -1.0000 -0.0000
vn -0.0000 1.0000 -0.0000
vt -0.328084 0.000000
vt -0.328084 0.328084
vt 11.154856 0.000000
vt 16.076115 0.000000
vt 16.076115 0.328084
vt -0.328084 0.000000
vt 16.076115 6.561680
vt 16.076115 -0.328084
vt -0.328084 6.561680
vt -0.328084 6.561680
vt -0.328083 -0.328084
vt 11.154856 6.561680
vt 0.328084 0.000000
vt -0.328084 -0.328084
vt 10.498688 0.000000
vt 0.328084 6.561680
vt -0.328083 0.328084
vt 10.498688 6.561680
vt -0.328084 6.561680
vt 0.328084 0.328084
vt -15.419948 6.561680
vt 15.419948 0.328084
vt -16.076115 6.561680
vt 16.076115 0.328084
vt 0.328084 6.561680
vt -16.076115 0.000000
vt 16.076115 -0.328084
vt 0.328084 0.000000
vt -15.419948 0.000000
vt 15.419948 -0.328084
vt -0.328084 0.000000
vt 0.328084 -0.328084
s 1
f 84/210/49 81/201/49 82/204/49
f 82/204/49 83/207/49 84/210/49
f 90/226/50 91/229/50 88/221/50
f 88/221/50 89/223/50 90/226/50
f 91/229/50 92/231/50 88/221/50
f 92/231/50 85/213/50 87/219/50
f 86/216/50 87/219/50 85/213/50
f 92/231/50 87/219/50 88/221/50
f 82/205/51 81/202/51 92/232/51
f 92/232/51 81/202/51 85/214/51
f 82/205/51 92/232/51 91/230/51
f 91/230/51 90/227/51 82/205/51
f 84/211/52 83/208/52 88/222/52
f 88/222/52 83/208/52 89/224/52
f 84/211/52 88/222/52 87/220/52
f 87/220/52 86/217/52 84/211/52
f 83/209/53 82/206/53 90/228/53
f 90/228/53 89/225/53 83/209/53
f 86/218/54 85/215/54 81/203/54
f 81/203/54 84/212/54 86/218/54
o Parede_básica_Genérico_-_200_mm_[290365]
v 3.093070 1.452036 0.000000
v 6.393070 1.452036 0.000000
v 6.393070 1.452036 2.000000
v 3.093070 1.452036 2.000000
v 3.093070 1.652036 -0.000000
v 3.093070 1.652036 2.000000
v 6.193070 1.652036 2.000000
v 6.393070 1.652036 2.000000
v 6.393070 1.652036 0.000000
v 6.193070 1.652036 -0.000000
vn -0.0000 -1.0000 -0.0000
vn -0.0000 1.0000 -0.0000
vn -0.0000 -0.0000 -1.0000
vn -0.0000 -0.0000 1.0000
vn -1.0000 -0.0000 -0.0000
vn 1.0000 -0.0000 -0.0000
vt 0.328084 0.328084
vt 0.328084 0.000000
vt 11.154856 0.000000
vt 11.154856 0.328084
vt -0.328084 0.000000
vt 11.154856 6.561680
vt 11.154856 -0.328084
vt -0.328084 6.561680
vt 0.328084 -0.328084
vt 0.328084 6.561680
vt 0.328084 -0.328084
vt -0.328084 0.000000
vt 0.328084 0.328084
vt -0.328084 6.561680
vt -10.498688 6.561680
vt 10.498688 0.328084
vt -11.154856 6.561680
vt 11.154856 0.328084
vt 0.328084 6.561680
vt -11.154856 0.000000
vt 11.154856 -0.328084
vt 0.328084 0.000000
vt -10.498688 -0.000000
vt 10.498688 -0.328084
s 1
f 96/242/55 93/234/55 95/238/55
f 94/235/55 95/238/55 93/234/55
f 100/249/56 101/252/56 99/247/56
f 99/247/56 101/252/56 102/255/56
f 102/255/56 97/244/56 98/246/56
f 102/255/56 98/246/56 99/247/56
f 94/236/57 93/233/57 102/256/57
f 97/243/57 102/256/57 93/233/57
f 102/256/57 101/253/57 94/236/57
f 96/241/58 95/239/58 99/248/58
f 100/250/58 99/248/58 95/239/58
f 99/248/58 98/245/58 96/241/58
f 97/244/59 93/234/59 96/242/59
f 96/242/59 98/246/59 97/244/59
f 95/240/60 94/237/60 101/254/60
f 101/254/60 100/251/60 95/240/60
o Parede_básica_Genérico_-_200_mm_[290435]
v 6.393070 1.652036 0.000000
v 6.393070 6.452036 0.000000
v 6.393070 6.452036 2.000000
v 6.393070 1.652036 2.000000
v 6.193070 1.652036 0.000000
v 6.193070 1.652036 2.000000
v 6.193070 6.252036 2.000000
v 6.193070 6.452036 2.000000
v 6.193070 6.452036 0.000000
v 6.193070 6.252036 0.000000
vn 1.0000 -0.0000 -0.0000
vn -1.0000 -0.0000 -0.0000
vn -0.0000 -0.0000 -1.0000
vn -0.0000 -0.0000 1.0000
vn -0.0000 -1.0000 -0.0000
vn -0.0000 1.0000 -0.0000
vt 0.328084 0.328084
vt 0.328084 0.000000
vt 16.076117 0.000000
vt 16.076115 0.328084
vt -0.328084 0.000000
vt 16.076117 6.561680
vt 16.076115 -0.328084
vt -0.328084 6.561680
vt 0.328084 -0.328084
vt 0.328084 6.561680
vt 0.328084 -0.328084
vt -0.328084 0.000000
vt 0.328084 0.328084
vt -0.328084 6.561680
vt -15.419948 6.561680
vt 15.419948 0.328084
vt -16.076117 6.561680
vt 16.076115 0.328084
vt 0.328084 6.561680
vt -16.076117 0.000000
vt 16.076115 -0.328084
vt 0.328084 0.000000
vt -15.419948 0.000000
vt 15.419948 -0.328084
s 1
f 106/266/61 103/258/61 104/259/61
f 104/259/61 105/262/61 106/266/61
f 110/273/62 111/276/62 109/271/62
f 109/271/62 111/276/62 112/279/62
f 112/279/62 107/268/62 108/270/62
f 112/279/62 108/270/62 109/271/62
f 104/260/63 103/257/63 112/280/63
f 107/267/63 112/280/63 103/257/63
f 112/280/63 111/277/63 104/260/63
f 106/265/64 105/263/64 109/272/64
f 110/274/64 109/272/64 105/263/64
f 109/272/64 108/269/64 106/265/64
f 107/268/65 103/258/65 106/266/65
f 106/266/65 108/270/65 107/268/65
f 105/264/66 104/261/66 111/278/66
f 111/278/66 110/275/66 105/264/66
o Parede_básica_Genérico_-_200_mm_[290514]
v 6.193070 6.452036 0.000000
v 3.093070 6.452036 0.000000
v 3.093070 6.452036 2.000000
v 6.193070 6.452036 2.000000
v 6.193070 6.252036 0.000000
v 6.193070 6.252036 2.000000
v 3.093070 6.252036 2.000000
v 3.093070 6.252036 0.000000
vn -0.0000 1.0000 -0.0000
vn -0.0000 -1.0000 -0.0000
vn -0.0000 -0.0000 -1.0000
vn -0.0000 -0.0000 1.0000
vn -1.0000 -0.0000 -0.0000
vn 1.0000 -0.0000 -0.0000
vt 0.328084 0.328084
vt 0.328084 0.000000
vt 10.498688 0.000000
vt 10.498688 0.328084
vt -0.328084 0.000000
vt 10.498688 6.561680
vt 10.498688 -0.328084
vt -0.328084 6.561680
vt 0.328084 -0.328084
vt 0.328084 6.561680
vt 0.328084 -0.328084
vt -0.328084 0.000000
vt 0.328084 0.328084
vt -0.328084 6.561680
vt -10.498688 6.561680
vt 10.498688 0.328084
vt 0.328084 6.561680
vt -10.498688 0.000000
vt 10.498688 -0.328084
vt 0.328084 0.000000
s 1
f 116/290/67 113/282/67 115/286/67
f 114/283/67 115/286/67 113/282/67
f 119/295/68 120/298/68 118/294/68
f 117/292/68 118/294/68 120/298/68
f 114/284/69 113/281/69 117/291/69
f 117/291/69 120/299/69 114/284/69
f 116/289/70 115/287/70 118/293/70
f 119/296/70 118/293/70 115/287/70
f 114/285/71 120/300/71 119/297/71
f 119/297/71 115/288/71 114/285/71
f 117/292/72 113/282/72 116/290/72
f 116/290/72 118/294/72 117/292/72
