# Blender 3.3.0
# www.blender.org
mtllib DUR-EX-3-TELHADO.mtl
o Piso_Concreto-comercial_362_mm_[288864]
v 8.893070 11.452036 -0.362000
v 15.893069 -4.547964 -0.362000
v -14.106931 -4.547964 -0.362000
v -7.106930 11.452036 -0.362000
v -4.606930 1.452036 -0.362000
v -1.106930 1.452036 -0.362000
v -1.106930 6.452036 -0.362000
v -4.606930 6.452036 -0.362000
v 6.393070 6.452036 -0.362000
v 2.893070 6.452036 -0.362000
v 2.893070 1.452036 -0.362000
v 6.393070 1.452036 -0.362000
v 8.893070 11.452036 0.000000
v -7.106930 11.452036 0.000000
v -14.106931 -4.547964 0.000000
v 15.893069 -4.547964 0.000000
v -4.606930 1.452036 0.000000
v -4.606930 6.452036 0.000000
v -1.106930 6.452036 0.000000
v -1.106930 1.452036 0.000000
v 6.393070 6.452036 0.000000
v 6.393070 1.452036 0.000000
v 2.893070 1.452036 0.000000
v 2.893070 6.452036 0.000000
vn -0.0000 -0.0000 -1.0000
vn -0.0000 -0.0000 1.0000
vn 0.9162 0.4008 -0.0000
vn -0.0000 -1.0000 -0.0000
vn -0.9162 0.4008 -0.0000
vn -0.0000 1.0000 -0.0000
vn -1.0000 -0.0000 -0.0000
vn 1.0000 -0.0000 -0.0000
vt 680.453735 -117.539055
vt 165.054413 1.187664
vt 680.453735 1.187664
vt 703.419617 -65.045616
vt 222.351807 1.187664
vt 703.419617 -1.187664
vt 604.994446 -65.045616
vt 604.994446 -1.187664
vt 302.085175 1.187664
vt 627.960327 -117.539055
vt 359.382599 1.187664
vt 627.960327 1.187664
vt 636.162415 -84.730659
vt 636.162415 1.187664
vt 84.730659 -1.187664
vt 647.645325 -84.730659
vt 647.645325 1.187664
vt -84.730659 -1.187664
vt 647.645325 -101.134857
vt -101.134857 -1.187664
vt 647.645325 -1.187664
vt 636.162415 -101.134857
vt 636.162415 -1.187664
vt 101.134857 -1.187664
vt 672.251648 -101.134857
vt 672.251648 -1.187664
vt -101.134857 -1.187664
vt 660.768677 -101.134857
vt 660.768677 -1.187664
vt 101.134857 -1.187664
vt 660.768677 -84.730659
vt 84.730659 -1.187664
vt 660.768677 1.187664
vt 672.251648 -84.730659
vt 672.251648 1.187664
vt -84.730659 -1.187664
vt 680.453735 117.539055
vt 165.054413 0.000000
vt 680.453735 0.000000
vt 627.960327 117.539055
vt 359.382599 0.000000
vt 627.960327 0.000000
vt 604.994446 65.045616
vt 604.994446 -0.000000
vt 302.085175 0.000000
vt 703.419617 65.045616
vt 222.351807 0.000000
vt 703.419617 -0.000000
vt 636.162415 84.730659
vt 636.162415 0.000000
vt 84.730659 -0.000000
vt 636.162415 101.134857
vt 636.162415 -0.000000
vt 101.134857 -0.000000
vt 647.645325 101.134857
vt -101.134857 -0.000000
vt 647.645325 -0.000000
vt 647.645325 84.730659
vt 647.645325 0.000000
vt -84.730659 -0.000000
vt 672.251648 101.134857
vt 672.251648 -0.000000
vt -101.134857 -0.000000
vt 672.251648 84.730659
vt 672.251648 0.000000
vt -84.730659 -0.000000
vt 660.768677 84.730659
vt 84.730659 -0.000000
vt 660.768677 0.000000
vt 660.768677 101.134857
vt 660.768677 -0.000000
vt 101.134857 -0.000000
s 1
f 1/1/1 9/25/1 10/28/1
f 9/25/1 1/1/1 2/4/1
f 1/1/1 10/28/1 4/10/1
f 4/10/1 7/19/1 8/22/1
f 7/19/1 4/10/1 10/28/1
f 4/10/1 8/22/1 3/7/1
f 10/28/1 11/31/1 7/19/1
f 11/31/1 12/34/1 2/4/1
f 6/16/1 7/19/1 11/31/1
f 2/4/1 12/34/1 9/25/1
f 11/31/1 2/4/1 6/16/1
f 5/13/1 6/16/1 3/7/1
f 3/7/1 6/16/1 2/4/1
f 5/13/1 3/7/1 8/22/1
f 16/46/2 22/64/2 23/67/2
f 22/64/2 16/46/2 21/61/2
f 19/55/2 20/58/2 23/67/2
f 16/46/2 23/67/2 20/58/2
f 15/43/2 20/58/2 17/49/2
f 20/58/2 15/43/2 16/46/2
f 15/43/2 17/49/2 18/52/2
f 21/61/2 13/37/2 24/70/2
f 13/37/2 21/61/2 16/46/2
f 24/70/2 13/37/2 14/40/2
f 19/55/2 14/40/2 18/52/2
f 14/40/2 19/55/2 24/70/2
f 18/52/2 14/40/2 15/43/2
f 24/70/2 19/55/2 23/67/2
f 2/5/3 1/2/3 13/38/3
f 13/38/3 16/47/3 2/5/3
f 3/8/4 2/6/4 16/48/4
f 16/48/4 15/44/4 3/8/4
f 4/11/5 3/9/5 14/41/5
f 15/45/5 14/41/5 3/9/5
f 1/3/6 4/12/6 13/39/6
f 14/42/6 13/39/6 4/12/6
f 6/17/6 5/14/6 17/50/6
f 17/50/6 20/59/6 6/17/6
f 7/20/7 6/18/7 20/60/7
f 20/60/7 19/56/7 7/20/7
f 8/23/4 7/21/4 19/57/4
f 19/57/4 18/53/4 8/23/4
f 5/15/8 8/24/8 17/51/8
f 18/54/8 17/51/8 8/24/8
f 10/29/4 9/26/4 21/62/4
f 21/62/4 24/71/4 10/29/4
f 11/32/8 10/30/8 23/68/8
f 24/72/8 23/68/8 10/30/8
f 12/35/6 11/33/6 23/69/6
f 23/69/6 22/65/6 12/35/6
f 9/27/7 12/36/7 22/66/7
f 22/66/7 21/63/7 9/27/7
