# Blender v3.1.2 OBJ File: 'fbx ajeitado.blend'
# www.blender.org
mtllib fbx ajeitado.mtl
o Parede_básica_Genérico_-_200_mm_[289010]_Parede_básica_Genérico_-_200_mm_[289010]_Geometry
v 0.646204 0.560691 -6.123134
v 0.646204 -0.739308 -6.124571
v 0.646204 -0.939308 -6.124792
v 0.646204 -0.940413 -5.124793
v 0.646204 -0.740414 -5.124572
v 0.646204 0.559586 -5.123135
v 0.846203 0.560691 -6.123134
v 0.846203 0.559586 -5.123135
v 0.846203 -0.940413 -5.124793
v 0.846203 -0.939308 -6.124792
v -0.653797 0.560691 -6.123134
v 0.646203 0.560691 -6.123134
v 0.846203 0.560691 -6.123134
v 0.846203 0.559586 -5.123135
v 0.646203 0.559586 -5.123135
v -0.653797 0.559586 -5.123135
v -0.653797 0.760691 -6.122913
v -0.653797 0.759586 -5.122913
v 0.846203 0.759586 -5.122913
v 0.846203 0.760691 -6.122913
v -0.653797 -0.939308 -6.124792
v -0.653797 -0.739308 -6.124571
v -0.653797 0.560691 -6.123134
v -0.653797 0.760691 -6.122913
v -0.653797 0.759586 -5.122913
v -0.653797 0.559586 -5.123135
v -0.653797 -0.740413 -5.124572
v -0.653797 -0.940413 -5.124793
v -0.853797 -0.939308 -6.124792
v -0.853797 -0.940413 -5.124793
v -0.853797 0.759586 -5.122913
v -0.853797 0.760691 -6.122913
v 0.646203 -0.739308 -6.124571
v -0.653797 -0.739308 -6.124571
v -0.653797 -0.740413 -5.124572
v 0.646203 -0.740413 -5.124572
v 0.646203 -0.939308 -6.124792
v 0.646203 -0.940413 -5.124793
v -0.653797 -0.940413 -5.124793
v -0.653797 -0.939308 -6.124792
v 0.846203 0.761091 -6.484913
v 0.846203 -0.938908 -6.486792
v -0.853797 -0.938908 -6.486792
v -0.853797 0.761091 -6.484913
v 0.846203 0.760691 -6.122913
v -0.853797 0.760691 -6.122913
v -0.853797 -0.939308 -6.124792
v 0.846203 -0.939308 -6.124792
vt 0.328084 3.280840
vt 0.328084 0.000000
vt 4.593176 0.000000
vt 4.593176 3.280840
vt 5.249344 -0.000000
vt 5.249344 3.280840
vt -5.249344 3.280840
vt -5.249344 0.000000
vt -0.328084 3.280840
vt -0.328084 0.000000
vt 4.593176 0.328084
vt 0.328084 -0.328084
vt 5.249344 -0.328084
vt 0.328084 0.328084
vt 5.249344 0.328084
vt 4.593176 -0.328084
vt 5.249344 0.328084
vt 0.328084 0.328084
vt 5.249344 -0.328084
vt 0.328084 -0.328084
vt -0.328084 3.280840
vt -0.328084 0.000000
vt 0.328084 0.000000
vt 0.328084 3.280840
vt 0.328084 3.280840
vt 0.328084 0.000000
vt 4.593176 0.000000
vt 4.593176 3.280840
vt 5.249344 0.000000
vt 5.249344 3.280840
vt -5.249344 3.280840
vt -5.249344 0.000000
vt -0.328084 0.000000
vt -0.328084 3.280840
vt 4.593176 0.328084
vt 0.328084 -0.328084
vt 5.249344 -0.328084
vt 0.328084 0.328084
vt 5.249344 0.328084
vt 4.593176 -0.328084
vt 5.249344 0.328084
vt 0.328084 0.328084
vt 5.249344 -0.328084
vt 0.328084 -0.328084
vt -0.328084 3.280840
vt -0.328084 0.000000
vt 0.328084 0.000000
vt 0.328084 3.280840
vt -0.328084 -0.000000
vt 0.328084 0.000000
vt 0.328084 3.280840
vt -0.328084 3.280840
vt 4.593176 3.280840
vt 4.593176 -0.000000
vt 5.249344 0.000000
vt 5.249344 3.280840
vt -5.249344 3.280840
vt -5.249344 0.000000
vt 0.328084 0.000000
vt 0.328084 3.280840
vt 5.249344 0.328084
vt 4.593176 0.328084
vt 5.249344 -0.328084
vt 0.328084 0.328084
vt -0.328084 -0.328084
vt -0.328084 0.328084
vt -0.328084 -0.328084
vt 0.328084 -0.328084
vt -0.328084 0.328084
vt 4.593176 -0.328084
vt 5.249344 0.328084
vt 5.249344 -0.328084
vt -0.328084 3.280840
vt -0.328084 0.000000
vt 0.328084 0.000000
vt 0.328084 3.280840
vt -5.249344 3.280840
vt -5.249344 0.000000
vt -4.593176 0.000000
vt -4.593176 3.280840
vt 0.328084 3.280840
vt 0.328084 0.000000
vt 4.593176 0.000000
vt 4.593176 3.280840
vt -4.593176 3.280840
vt -4.593176 0.000000
vt -0.328084 0.000000
vt -0.328084 3.280840
vt 4.593176 0.328084
vt 0.328084 0.328084
vt 4.593176 -0.328084
vt 0.328084 -0.328084
vt 0.328084 -0.328084
vt 4.593176 -0.328084
vt 4.593176 0.328084
vt 0.328084 0.328084
vt -0.328084 0.000000
vt 0.328084 0.000000
vt 0.328084 3.280840
vt -0.328084 3.280840
vt 19.537273 3.316372
vt 25.114702 3.316372
vt 19.537273 8.893800
vt 25.114702 8.893800
vt 19.537273 -8.893800
vt 25.114702 -8.893800
vt 19.537273 -3.316372
vt 25.114702 -3.316372
vt -8.893800 -1.187664
vt -3.316372 -1.187664
vt -3.316372 -0.000000
vt -8.893800 -0.000000
vt 19.537273 -1.187664
vt 25.114702 -1.187664
vt 25.114702 -0.000000
vt 19.537273 -0.000000
vt 3.316372 -1.187664
vt 8.893800 -1.187664
vt 8.893800 -0.000000
vt 3.316372 -0.000000
vt 25.114702 1.187664
vt 19.537273 1.187664
vt 19.537273 0.000000
vt 25.114702 0.000000
vn -1.0000 0.0000 0.0000
vn 1.0000 0.0000 0.0000
vn 0.0000 0.0011 -1.0000
vn 0.0000 -0.0011 1.0000
vn 0.0000 1.0000 0.0011
vn 0.0000 -1.0000 -0.0011
usemtl None
s 1
f 6/1/1 1/2/1 2/3/1
f 6/1/1 2/3/1 5/4/1
f 5/4/1 3/5/1 4/6/1
f 3/5/1 5/4/1 2/3/1
f 9/7/2 10/8/2 8/9/2
f 7/10/2 8/9/2 10/8/2
f 2/11/3 7/12/3 10/13/3
f 7/12/3 2/11/3 1/14/3
f 2/11/3 10/13/3 3/15/3
f 5/16/4 9/17/4 8/18/4
f 9/17/4 5/16/4 4/19/4
f 5/16/4 8/18/4 6/20/4
f 7/10/5 1/2/5 6/1/5
f 6/1/5 8/9/5 7/10/5
f 4/21/6 3/22/6 10/23/6
f 10/23/6 9/24/6 4/21/6
f 16/25/6 11/26/6 12/27/6
f 16/25/6 12/27/6 15/28/6
f 15/28/6 13/29/6 14/30/6
f 13/29/6 15/28/6 12/27/6
f 19/31/5 20/32/5 17/33/5
f 17/33/5 18/34/5 19/31/5
f 12/35/3 17/36/3 20/37/3
f 17/36/3 12/35/3 11/38/3
f 12/35/3 20/37/3 13/39/3
f 15/40/4 19/41/4 18/42/4
f 19/41/4 15/40/4 14/43/4
f 15/40/4 18/42/4 16/44/4
f 17/33/1 11/26/1 16/25/1
f 16/25/1 18/34/1 17/33/1
f 14/45/2 13/46/2 20/47/2
f 20/47/2 19/48/2 14/45/2
f 21/49/2 22/50/2 27/51/2
f 27/51/2 28/52/2 21/49/2
f 22/50/2 26/53/2 27/51/2
f 23/54/2 24/55/2 26/53/2
f 25/56/2 26/53/2 24/55/2
f 23/54/2 26/53/2 22/50/2
f 31/57/1 32/58/1 29/59/1
f 29/59/1 30/60/1 31/57/1
f 24/61/3 23/62/3 32/63/3
f 22/64/3 29/65/3 32/63/3
f 29/65/3 22/64/3 21/66/3
f 22/64/3 32/63/3 23/62/3
f 28/67/4 27/68/4 30/69/4
f 26/70/4 31/71/4 30/69/4
f 31/71/4 26/70/4 25/72/4
f 26/70/4 30/69/4 27/68/4
f 25/73/5 24/74/5 32/75/5
f 32/75/5 31/76/5 25/73/5
f 30/77/6 29/78/6 21/79/6
f 21/79/6 28/80/6 30/77/6
f 36/81/5 33/82/5 34/83/5
f 34/83/5 35/84/5 36/81/5
f 39/85/6 40/86/6 37/87/6
f 37/87/6 38/88/6 39/85/6
f 34/89/3 33/90/3 40/91/3
f 37/92/3 40/91/3 33/90/3
f 36/93/4 35/94/4 39/95/4
f 39/95/4 38/96/4 36/93/4
f 34/97/1 40/98/1 39/99/1
f 39/99/1 35/100/1 34/97/1
f 37/87/2 33/82/2 36/81/2
f 36/81/2 38/88/2 37/87/2
f 44/101/3 41/102/3 43/103/3
f 42/104/3 43/103/3 41/102/3
f 47/105/4 48/106/4 46/107/4
f 45/108/4 46/107/4 48/106/4
f 42/109/2 41/110/2 45/111/2
f 45/111/2 48/112/2 42/109/2
f 43/113/6 42/114/6 48/115/6
f 48/115/6 47/116/6 43/113/6
f 44/117/1 43/118/1 47/119/1
f 47/119/1 46/120/1 44/117/1
f 41/121/5 44/122/5 46/123/5
f 46/123/5 45/124/5 41/121/5
