# Blender v3.2.2 OBJ File: ''
# www.blender.org
mtllib M2-Paredes.mtl
o Parede_básica_Genérico_-_200_mm_[288916]_Parede_básica_Genérico_-_200_mm_[288916]_Geometry
v 15.724565 17.205545 0.000001
v 5.424565 17.205545 0.000001
v 5.424565 17.205545 2.000001
v 15.724565 17.205545 2.000001
v 15.724565 17.005547 0.000001
v 15.724565 17.005547 2.000001
v 5.624566 17.005547 2.000001
v 5.424565 17.005547 2.000001
v 5.424565 17.005547 0.000001
v 5.624566 17.005547 0.000001
vt 0.328084 6.561680
vt 0.328084 0.000000
vt 34.120735 0.000000
vt 34.120735 6.561680
vt -34.120735 6.561680
vt -34.120735 0.000000
vt -33.464565 6.561680
vt -33.464565 0.000000
vt -0.328084 0.000000
vt -0.328084 6.561680
vt 34.120735 0.328084
vt 0.328084 0.328084
vt 33.464565 -0.328084
vt 0.328084 -0.328084
vt 34.120735 -0.328084
vt 0.328086 -0.328084
vt 34.120735 -0.328084
vt 33.464565 0.328084
vt 34.120735 0.328084
vt 0.328086 0.328084
vt -0.328084 6.561680
vt -0.328084 0.000000
vt 0.328084 0.000000
vt 0.328084 6.561680
vn 0.0000 1.0000 0.0000
vn 0.0000 -1.0000 0.0000
vn 0.0000 0.0000 -1.0000
vn 0.0000 0.0000 1.0000
vn -1.0000 0.0000 0.0000
vn 1.0000 0.0000 0.0000
usemtl None
s 1
f 4/1/1 1/2/1 2/3/1
f 2/3/1 3/4/1 4/1/1
f 8/5/2 9/6/2 7/7/2
f 7/7/2 9/6/2 10/8/2
f 10/8/2 5/9/2 6/10/2
f 10/8/2 6/10/2 7/7/2
f 2/11/3 1/12/3 10/13/3
f 5/14/3 10/13/3 1/12/3
f 10/13/3 9/15/3 2/11/3
f 4/16/4 3/17/4 7/18/4
f 8/19/4 7/18/4 3/17/4
f 7/18/4 6/20/4 4/16/4
f 3/21/5 2/22/5 9/23/5
f 9/23/5 8/24/5 3/21/5
f 5/9/6 1/2/6 4/1/6
f 4/1/6 6/10/6 5/9/6
o Parede_básica_Genérico_-_200_mm_[288971]_Parede_básica_Genérico_-_200_mm_[288971]_Geometry
v 5.424565 17.005547 0.000001
v 5.424565 13.205545 0.000001
v 5.424565 13.005546 0.000001
v 5.424565 13.005546 2.000000
v 5.424565 13.205545 2.000000
v 5.424565 17.005547 2.000001
v 5.624566 17.005547 0.000001
v 5.624566 17.005547 2.000001
v 5.624566 13.205545 2.000000
v 5.624566 13.005546 2.000000
v 5.624566 13.005546 0.000001
vt 0.328084 6.561680
vt 0.328084 0.000000
vt 12.795276 -0.000000
vt 12.795276 6.561680
vt 13.451444 0.000000
vt 13.451444 6.561680
vt -13.451444 6.561680
vt -13.451444 0.000000
vt -12.795276 6.561680
vt -0.328084 0.000000
vt -0.328084 6.561680
vt 12.795276 0.328084
vt 0.328084 -0.328084
vt 13.451444 -0.328084
vt 0.328084 0.328084
vt 13.451444 0.328084
vt 12.795276 -0.328084
vt 13.451444 -0.328084
vt 12.795276 0.328084
vt 0.328084 -0.328084
vt 13.451444 0.328084
vt 0.328084 0.328084
vt -0.328084 6.561680
vt -0.328084 0.000000
vt 0.328084 0.000000
vt 0.328084 6.561680
vn -1.0000 0.0000 0.0000
vn 1.0000 0.0000 0.0000
vn 0.0000 0.0000 -1.0000
vn 0.0000 -0.0000 1.0000
vn 0.0000 1.0000 0.0000
vn 0.0000 -1.0000 0.0000
usemtl None
s 1
f 16/25/7 11/26/7 12/27/7
f 16/25/7 12/27/7 15/28/7
f 15/28/7 13/29/7 14/30/7
f 13/29/7 15/28/7 12/27/7
f 20/31/8 21/32/8 19/33/8
f 19/33/8 17/34/8 18/35/8
f 17/34/8 19/33/8 21/32/8
f 12/36/9 17/37/9 21/38/9
f 17/37/9 12/36/9 11/39/9
f 12/36/9 21/38/9 13/40/9
f 15/41/10 14/42/10 19/43/10
f 16/44/10 15/41/10 19/43/10
f 20/45/10 19/43/10 14/42/10
f 19/43/10 18/46/10 16/44/10
f 17/34/11 11/26/11 16/25/11
f 16/25/11 18/35/11 17/34/11
f 14/47/12 13/48/12 21/49/12
f 21/49/12 20/50/12 14/47/12
o Parede_básica_Genérico_-_200_mm_[289086]_Parede_básica_Genérico_-_200_mm_[289086]_Geometry
v 5.424565 13.205545 0.000001
v 2.124565 13.205545 0.000001
v 2.124565 13.205545 4.000000
v 5.624566 13.205545 4.000000
v 5.624566 13.205545 2.000000
v 5.424565 13.205545 2.000000
v 5.424565 13.005546 0.000001
v 5.424565 13.005546 2.000000
v 5.624566 13.005546 2.000000
v 5.624566 13.005546 4.000000
v 5.424565 13.005546 4.000000
v 2.324565 13.005546 4.000000
v 2.124565 13.005546 4.000000
v 2.124565 13.005546 0.000001
v 2.324565 13.005546 0.000001
vt 0.328084 6.561680
vt -0.328084 13.123360
vt -0.328084 6.561680
vt 11.154856 -0.000000
vt 11.154856 13.123360
vt 0.328084 0.000000
vt -11.154856 0.000000
vt -10.498688 0.000000
vt -10.498688 13.123360
vt -11.154856 13.123360
vt -0.328084 6.561680
vt -0.328084 -0.000000
vt -0.328084 13.123360
vt 0.328084 6.561680
vt 0.328084 13.123360
vt 11.154856 0.328084
vt 0.328084 0.328084
vt 10.498688 -0.328084
vt 0.328084 -0.328084
vt 11.154856 -0.328084
vt -0.328084 -0.328084
vt 11.154856 -0.328084
vt 10.498688 0.328084
vt 11.154856 0.328084
vt 0.328084 0.328084
vt -0.328084 0.328084
vt -0.328084 13.123360
vt -0.328084 0.000000
vt 0.328084 0.000000
vt 0.328084 13.123360
vt -0.328084 -0.328084
vt 0.328084 -0.328084
vt 0.328084 0.328084
vt -0.328084 0.328084
vt -0.328084 13.123360
vt -0.328084 6.561680
vt 0.328084 6.561680
vt 0.328084 13.123360
vn 0.0000 1.0000 0.0000
vn 0.0000 -1.0000 0.0000
vn 0.0000 0.0000 -1.0000
vn 0.0000 0.0000 1.0000
vn -1.0000 0.0000 0.0000
vn 1.0000 0.0000 0.0000
usemtl None
s 1
f 27/51/13 25/52/13 26/53/13
f 27/51/13 23/54/13 24/55/13
f 23/54/13 27/51/13 22/56/13
f 27/51/13 24/55/13 25/52/13
f 35/57/14 36/58/14 33/59/14
f 33/59/14 34/60/14 35/57/14
f 36/58/14 29/61/14 33/59/14
f 28/62/14 29/61/14 36/58/14
f 32/63/14 30/64/14 31/65/14
f 30/64/14 32/63/14 29/61/14
f 29/61/14 32/63/14 33/59/14
f 23/66/15 22/67/15 36/68/15
f 28/69/15 36/68/15 22/67/15
f 36/68/15 35/70/15 23/66/15
f 25/71/16 24/72/16 33/73/16
f 33/73/16 24/72/16 34/74/16
f 25/71/16 33/73/16 32/75/16
f 32/75/16 31/76/16 25/71/16
f 24/77/17 23/78/17 35/79/17
f 35/79/17 34/80/17 24/77/17
f 30/81/15 29/82/15 27/83/15
f 27/83/15 26/84/15 30/81/15
f 28/62/18 22/56/18 27/51/18
f 27/51/18 29/61/18 28/62/18
f 31/85/18 30/86/18 26/87/18
f 26/87/18 25/88/18 31/85/18
o Parede_básica_Genérico_-_200_mm_[289161]_Parede_básica_Genérico_-_200_mm_[289161]_Geometry
v 2.124565 13.005546 0.000001
v 2.124565 6.305545 0.000000
v 2.124565 6.305545 4.000000
v 2.124565 13.005546 4.000000
v 2.324565 13.005546 0.000001
v 2.324565 13.005546 4.000000
v 2.324565 6.505546 4.000000
v 2.324565 6.305545 4.000000
v 2.324565 6.305545 0.000000
v 2.324565 6.505546 0.000000
vt 0.328084 13.123360
vt 0.328084 0.000000
vt 22.309711 0.000000
vt 22.309711 13.123360
vt -22.309711 13.123360
vt -22.309711 -0.000000
vt -21.653543 13.123360
vt -21.653543 0.000000
vt -0.328084 0.000000
vt -0.328084 13.123360
vt 22.309711 0.328084
vt 0.328084 0.328084
vt 21.653543 -0.328084
vt 0.328084 -0.328084
vt 22.309711 -0.328084
vt 0.328084 -0.328084
vt 22.309711 -0.328084
vt 21.653543 0.328084
vt 22.309711 0.328084
vt 0.328084 0.328084
vt -0.328084 13.123360
vt -0.328084 0.000000
vt 0.328084 0.000000
vt 0.328084 13.123360
vn -1.0000 0.0000 0.0000
vn 1.0000 0.0000 0.0000
vn 0.0000 0.0000 -1.0000
vn -0.0000 0.0000 1.0000
vn 0.0000 1.0000 0.0000
vn 0.0000 -1.0000 0.0000
usemtl None
s 1
f 40/89/19 37/90/19 38/91/19
f 38/91/19 39/92/19 40/89/19
f 44/93/20 45/94/20 43/95/20
f 43/95/20 45/94/20 46/96/20
f 46/96/20 41/97/20 42/98/20
f 46/96/20 42/98/20 43/95/20
f 38/99/21 37/100/21 46/101/21
f 41/102/21 46/101/21 37/100/21
f 46/101/21 45/103/21 38/99/21
f 40/104/22 39/105/22 43/106/22
f 44/107/22 43/106/22 39/105/22
f 43/106/22 42/108/22 40/104/22
f 41/97/23 37/90/23 40/89/23
f 40/89/23 42/98/23 41/97/23
f 39/109/24 38/110/24 45/111/24
f 45/111/24 44/112/24 39/109/24
o Parede_básica_Genérico_-_200_mm_[289195]_Parede_básica_Genérico_-_200_mm_[289195]_Geometry
v 2.324565 6.305545 0.000000
v 5.424565 6.305545 0.000000
v 5.624566 6.305545 0.000000
v 5.624566 6.305545 2.000000
v 5.624566 6.305545 4.000000
v 2.324565 6.305545 4.000000
v 2.324565 6.505546 0.000000
v 2.324565 6.505546 4.000000
v 5.424565 6.505546 4.000000
v 5.624566 6.505546 4.000000
v 5.624566 6.505546 0.000000
v 5.424565 6.505546 0.000000
vt 11.154856 6.561680
vt 0.328084 13.123360
vt 0.328084 0.000000
vt 10.498688 -0.000000
vt 11.154856 0.000000
vt 11.154856 13.123360
vt -11.154856 13.123360
vt -11.154856 -0.000000
vt -10.498688 13.123360
vt -10.498688 0.000000
vt -0.328084 -0.000000
vt -0.328084 13.123360
vt 10.498688 0.328084
vt 0.328084 0.328084
vt 0.328084 -0.328084
vt 11.154856 0.328084
vt 10.498688 -0.328084
vt 11.154856 -0.328084
vt 0.328084 -0.328084
vt 11.154856 -0.328084
vt 10.498688 0.328084
vt 11.154856 0.328084
vt 0.328084 0.328084
vt -0.328084 6.561680
vt 0.328084 0.000000
vt 0.328084 13.123360
vt -0.328084 0.000000
vt -0.328084 13.123360
vn 0.0000 -1.0000 0.0000
vn 0.0000 1.0000 0.0000
vn 0.0000 0.0000 -1.0000
vn 0.0000 0.0000 1.0000
vn -1.0000 0.0000 0.0000
vn 1.0000 0.0000 0.0000
usemtl None
s 1
f 50/113/25 52/114/25 47/115/25
f 50/113/25 47/115/25 48/116/25
f 49/117/25 50/113/25 48/116/25
f 50/113/25 51/118/25 52/114/25
f 56/119/26 57/120/26 55/121/26
f 55/121/26 57/120/26 58/122/26
f 58/122/26 53/123/26 54/124/26
f 58/122/26 54/124/26 55/121/26
f 48/125/27 47/126/27 53/127/27
f 49/128/27 48/125/27 58/129/27
f 53/127/27 58/129/27 48/125/27
f 58/129/27 57/130/27 49/128/27
f 52/131/28 51/132/28 55/133/28
f 56/134/28 55/133/28 51/132/28
f 55/133/28 54/135/28 52/131/28
f 53/123/29 47/115/29 52/114/29
f 52/114/29 54/124/29 53/123/29
f 50/136/30 57/137/30 56/138/30
f 57/137/30 50/136/30 49/139/30
f 50/136/30 56/138/30 51/140/30
o Parede_básica_Genérico_-_200_mm_[289264]_Parede_básica_Genérico_-_200_mm_[289264]_Geometry
v 5.424565 6.305545 0.000000
v 5.424565 2.105545 0.000000
v 5.424565 2.105545 2.000000
v 5.424565 6.305545 2.000000
v 5.624566 6.305545 0.000000
v 5.624566 6.305545 2.000000
v 5.624566 2.305545 2.000000
v 5.624566 2.105545 2.000000
v 5.624566 2.105545 0.000000
v 5.624566 2.305545 0.000000
vt 0.328084 6.561680
vt 0.328084 0.000000
vt 14.107612 0.000000
vt 14.107612 6.561680
vt -14.107612 6.561680
vt -14.107612 0.000000
vt -13.451444 6.561680
vt -13.451444 0.000000
vt -0.328084 0.000000
vt -0.328084 6.561680
vt 14.107612 0.328084
vt 0.328084 0.328084
vt 13.451444 -0.328084
vt 0.328084 -0.328084
vt 14.107612 -0.328084
vt 0.328084 -0.328084
vt 14.107612 -0.328084
vt 13.451444 0.328084
vt 14.107612 0.328084
vt 0.328084 0.328084
vt -0.328084 6.561680
vt -0.328084 0.000000
vt 0.328084 0.000000
vt 0.328084 6.561680
vn -1.0000 0.0000 0.0000
vn 1.0000 0.0000 0.0000
vn 0.0000 0.0000 -1.0000
vn 0.0000 -0.0000 1.0000
vn 0.0000 1.0000 0.0000
vn 0.0000 -1.0000 0.0000
usemtl None
s 1
f 62/141/31 59/142/31 60/143/31
f 60/143/31 61/144/31 62/141/31
f 66/145/32 67/146/32 65/147/32
f 65/147/32 67/146/32 68/148/32
f 68/148/32 63/149/32 64/150/32
f 68/148/32 64/150/32 65/147/32
f 60/151/33 59/152/33 68/153/33
f 63/154/33 68/153/33 59/152/33
f 68/153/33 67/155/33 60/151/33
f 62/156/34 61/157/34 65/158/34
f 66/159/34 65/158/34 61/157/34
f 65/158/34 64/160/34 62/156/34
f 63/149/35 59/142/35 62/141/35
f 62/141/35 64/150/35 63/149/35
f 61/161/36 60/162/36 67/163/36
f 67/163/36 66/164/36 61/161/36
o Parede_básica_Genérico_-_200_mm_[289329]_Parede_básica_Genérico_-_200_mm_[289329]_Geometry
v 5.624566 2.105545 0.000000
v 11.624565 2.105545 0.000000
v 11.624565 2.105545 2.000000
v 5.624566 2.105545 2.000000
v 5.624566 2.305545 0.000000
v 5.624566 2.305545 2.000000
v 11.424565 2.305545 2.000000
v 11.624565 2.305545 2.000000
v 11.624565 2.305545 0.000000
v 11.424565 2.305545 0.000000
vt 0.328084 6.561680
vt 0.328084 0.000000
vt 20.013123 6.561680
vt 20.013123 0.000000
vt -20.013123 6.561680
vt -20.013123 0.000000
vt -19.356955 6.561680
vt -19.356955 -0.000000
vt -0.328084 0.000000
vt -0.328084 6.561680
vt 20.013123 0.328084
vt 0.328084 0.328084
vt 19.356955 -0.328084
vt 0.328084 -0.328084
vt 20.013123 -0.328084
vt 0.328085 -0.328084
vt 20.013123 -0.328084
vt 19.356955 0.328084
vt 20.013123 0.328084
vt 0.328085 0.328084
vt -0.328084 6.561680
vt -0.328084 0.000000
vt 0.328084 0.000000
vt 0.328084 6.561680
vn 0.0000 -1.0000 0.0000
vn 0.0000 1.0000 0.0000
vn 0.0000 0.0000 -1.0000
vn 0.0000 0.0000 1.0000
vn -1.0000 0.0000 0.0000
vn 1.0000 -0.0000 0.0000
usemtl None
s 1
f 72/165/37 69/166/37 71/167/37
f 70/168/37 71/167/37 69/166/37
f 76/169/38 77/170/38 75/171/38
f 75/171/38 77/170/38 78/172/38
f 78/172/38 73/173/38 74/174/38
f 78/172/38 74/174/38 75/171/38
f 70/175/39 69/176/39 78/177/39
f 73/178/39 78/177/39 69/176/39
f 78/177/39 77/179/39 70/175/39
f 72/180/40 71/181/40 75/182/40
f 76/183/40 75/182/40 71/181/40
f 75/182/40 74/184/40 72/180/40
f 73/173/41 69/166/41 72/165/41
f 72/165/41 74/174/41 73/173/41
f 71/185/42 70/186/42 77/187/42
f 77/187/42 76/188/42 71/185/42
o Parede_básica_Genérico_-_200_mm_[289418]_Parede_básica_Genérico_-_200_mm_[289418]_Geometry
v 11.624565 2.305545 0.000000
v 11.624565 9.805546 0.000000
v 11.624565 10.005546 0.000000
v 11.624565 10.005546 2.000000
v 11.624565 9.805546 2.000000
v 11.624565 2.305545 2.000000
v 11.424565 2.305545 0.000000
v 11.424565 2.305545 2.000000
v 11.424565 10.005546 2.000000
v 11.424565 10.005546 0.000000
vt 0.328084 6.561680
vt 0.328084 0.000000
vt 24.934383 0.000000
vt 24.934383 6.561680
vt 25.590551 -0.000000
vt 25.590551 6.561680
vt -25.590551 6.561680
vt -25.590551 0.000000
vt -0.328084 0.000000
vt -0.328084 6.561680
vt 24.934383 0.328084
vt 0.328084 -0.328084
vt 25.590551 -0.328084
vt 0.328084 0.328084
vt 25.590551 0.328084
vt 24.934383 -0.328084
vt 25.590551 0.328084
vt 0.328084 0.328084
vt 25.590551 -0.328084
vt 0.328084 -0.328084
vt -0.328084 6.561680
vt -0.328084 0.000000
vt 0.328084 0.000000
vt 0.328084 6.561680
vn 1.0000 0.0000 0.0000
vn -1.0000 -0.0000 0.0000
vn -0.0000 0.0000 -1.0000
vn 0.0000 -0.0000 1.0000
vn 0.0000 -1.0000 0.0000
vn 0.0000 1.0000 0.0000
usemtl None
s 1
f 84/189/43 79/190/43 80/191/43
f 84/189/43 80/191/43 83/192/43
f 83/192/43 81/193/43 82/194/43
f 81/193/43 83/192/43 80/191/43
f 87/195/44 88/196/44 85/197/44
f 85/197/44 86/198/44 87/195/44
f 80/199/45 85/200/45 88/201/45
f 85/200/45 80/199/45 79/202/45
f 80/199/45 88/201/45 81/203/45
f 83/204/46 87/205/46 86/206/46
f 87/205/46 83/204/46 82/207/46
f 83/204/46 86/206/46 84/208/46
f 85/197/47 79/190/47 84/189/47
f 84/189/47 86/198/47 85/197/47
f 82/209/48 81/210/48 88/211/48
f 88/211/48 87/212/48 82/209/48
o Parede_básica_Genérico_-_200_mm_[289457]_Parede_básica_Genérico_-_200_mm_[289457]_Geometry
v 11.624565 9.805546 0.000000
v 15.924565 9.805546 0.000000
v 15.924565 9.805546 2.000000
v 11.624565 9.805546 2.000000
v 11.624565 10.005546 0.000000
v 11.624565 10.005546 2.000000
v 15.724565 10.005546 2.000000
v 15.924565 10.005546 2.000000
v 15.924565 10.005546 0.000000
v 15.724565 10.005546 0.000000
vt 0.328084 6.561680
vt 0.328084 0.000000
vt 14.435696 6.561680
vt 14.435696 0.000000
vt -14.435696 6.561680
vt -14.435696 0.000000
vt -13.779528 6.561680
vt -13.779528 0.000000
vt -0.328084 0.000000
vt -0.328084 6.561680
vt 14.435696 0.328084
vt 0.328084 0.328084
vt 13.779528 -0.328084
vt 0.328084 -0.328084
vt 14.435696 -0.328084
vt 0.328084 -0.328084
vt 14.435696 -0.328084
vt 13.779528 0.328084
vt 14.435696 0.328084
vt 0.328084 0.328084
vt -0.328084 6.561680
vt -0.328084 0.000000
vt 0.328084 0.000000
vt 0.328084 6.561680
vn 0.0000 -1.0000 0.0000
vn 0.0000 1.0000 0.0000
vn 0.0000 0.0000 -1.0000
vn 0.0000 0.0000 1.0000
vn -1.0000 0.0000 0.0000
vn 1.0000 -0.0000 0.0000
usemtl None
s 1
f 92/213/49 89/214/49 91/215/49
f 90/216/49 91/215/49 89/214/49
f 96/217/50 97/218/50 95/219/50
f 95/219/50 97/218/50 98/220/50
f 98/220/50 93/221/50 94/222/50
f 98/220/50 94/222/50 95/219/50
f 90/223/51 89/224/51 98/225/51
f 93/226/51 98/225/51 89/224/51
f 98/225/51 97/227/51 90/223/51
f 92/228/52 91/229/52 95/230/52
f 96/231/52 95/230/52 91/229/52
f 95/230/52 94/232/52 92/228/52
f 93/221/53 89/214/53 92/213/53
f 92/213/53 94/222/53 93/221/53
f 91/233/54 90/234/54 97/235/54
f 97/235/54 96/236/54 91/233/54
o Parede_básica_Genérico_-_200_mm_[289522]_Parede_básica_Genérico_-_200_mm_[289522]_Geometry
v 15.924565 10.005546 0.000000
v 15.924565 17.205545 0.000001
v 15.924565 17.205545 2.000001
v 15.924565 10.005546 2.000000
v 15.724565 10.005546 0.000000
v 15.724565 10.005546 2.000000
v 15.724565 17.005547 2.000001
v 15.724565 17.205545 2.000001
v 15.724565 17.205545 0.000001
v 15.724565 17.005547 0.000001
vt 0.328084 6.561680
vt 0.328084 0.000000
vt 23.950130 0.000000
vt 23.950130 6.561680
vt -23.950130 6.561680
vt -23.950130 -0.000000
vt -23.293962 6.561680
vt -23.293962 0.000000
vt -0.328084 -0.000000
vt -0.328084 6.561680
vt 23.950130 0.328084
vt 0.328084 0.328084
vt 23.293962 -0.328084
vt 0.328084 -0.328084
vt 23.950130 -0.328084
vt 0.328085 -0.328084
vt 23.950130 -0.328084
vt 23.293962 0.328084
vt 23.950130 0.328084
vt 0.328085 0.328084
vt -0.328084 6.561680
vt -0.328084 0.000000
vt 0.328084 0.000000
vt 0.328084 6.561680
vn 1.0000 -0.0000 0.0000
vn -1.0000 0.0000 0.0000
vn 0.0000 0.0000 -1.0000
vn 0.0000 -0.0000 1.0000
vn 0.0000 -1.0000 0.0000
vn 0.0000 1.0000 0.0000
usemtl None
s 1
f 102/237/55 99/238/55 100/239/55
f 100/239/55 101/240/55 102/237/55
f 106/241/56 107/242/56 105/243/56
f 105/243/56 107/242/56 108/244/56
f 108/244/56 103/245/56 104/246/56
f 108/244/56 104/246/56 105/243/56
f 100/247/57 99/248/57 108/249/57
f 103/250/57 108/249/57 99/248/57
f 108/249/57 107/251/57 100/247/57
f 102/252/58 101/253/58 105/254/58
f 106/255/58 105/254/58 101/253/58
f 105/254/58 104/256/58 102/252/58
f 103/245/59 99/238/59 102/237/59
f 102/237/59 104/246/59 103/245/59
f 101/257/60 100/258/60 107/259/60
f 107/259/60 106/260/60 101/257/60
o Parede_básica_Genérico_-_200_mm_[289788]_Parede_básica_Genérico_-_200_mm_[289788]_Geometry
v 5.424565 13.005546 0.000001
v 5.424565 6.505546 0.000000
v 5.424565 6.505546 4.000000
v 5.424565 13.005546 4.000000
v 5.424565 13.005546 2.000000
v 5.624566 13.005546 0.000001
v 5.624566 13.005546 2.000000
v 5.624566 13.005546 4.000000
v 5.624566 6.505546 4.000000
v 5.624566 6.505546 0.000000
vt 0.328084 6.561680
vt 21.653543 0.000000
vt 21.653543 13.123360
vt 0.328084 0.000000
vt 0.328084 13.123360
vt -21.653543 13.123360
vt -21.653543 0.000000
vt -0.328084 6.561680
vt -0.328084 0.000000
vt -0.328084 13.123360
vt 21.653543 0.328084
vt 0.328084 0.328084
vt 0.328084 -0.328084
vt 21.653543 -0.328084
vt 0.328084 -0.328084
vt 21.653543 -0.328084
vt 21.653543 0.328084
vt 0.328084 0.328084
vt -0.328084 0.000000
vt 0.328084 0.000000
vt 0.328084 13.123360
vt -0.328084 13.123360
vn -1.0000 0.0000 0.0000
vn 1.0000 -0.0000 0.0000
vn 0.0000 0.0000 -1.0000
vn 0.0000 0.0000 1.0000
vn 0.0000 1.0000 0.0000
vn 0.0000 -1.0000 0.0000
usemtl None
s 1
f 113/261/61 110/262/61 111/263/61
f 110/262/61 113/261/61 109/264/61
f 113/261/61 111/263/61 112/265/61
f 117/266/62 118/267/62 115/268/62
f 114/269/62 115/268/62 118/267/62
f 115/268/62 116/270/62 117/266/62
f 110/271/63 109/272/63 114/273/63
f 114/273/63 118/274/63 110/271/63
f 112/275/64 111/276/64 117/277/64
f 117/277/64 116/278/64 112/275/64
f 114/269/65 109/264/65 113/261/65
f 115/268/65 113/261/65 112/265/65
f 113/261/65 115/268/65 114/269/65
f 112/265/65 116/270/65 115/268/65
f 110/279/66 118/280/66 117/281/66
f 117/281/66 111/282/66 110/279/66
