# Blender v3.2.2 OBJ File: ''
# www.blender.org
mtllib M2-Telhado00.mtl
o Telhado_básico_Genérico_-_125_mm_[290205]_Telhado_básico_Genérico_-_125_mm_[290205]_Geometry.002
v 10.684566 2.205545 1.714000
v 10.684566 17.105545 1.714001
v 10.684566 17.105545 1.839624
v 10.684566 2.205545 1.839623
v 10.674565 2.205545 1.715000
v 5.524565 2.205545 1.200000
v 5.524565 17.105545 1.200001
v 10.674565 17.105545 1.715001
v 10.674565 2.205545 1.840623
v 5.524565 2.205545 1.325624
v 5.524565 17.105545 1.325624
v 10.674565 17.105545 1.840624
vt -50.049797 -6.659740
vt -50.049797 -7.071891
vt -1.165282 -7.071891
vt -1.165282 -6.659740
vt 7.236041 18.427010
vt 56.120556 18.427010
vt 56.120556 35.407604
vt 7.236041 35.407604
vt 18.125214 3.937008
vt 35.021542 5.626640
vt 18.125214 4.349158
vt 35.021542 6.038791
vt 35.054352 6.035510
vt 35.054352 5.623359
vt -56.120556 4.349158
vt -56.120556 3.937008
vt -7.236041 3.937008
vt -7.236041 4.349158
vt -35.021538 6.038791
vt -35.054352 6.035510
vt -35.021538 5.626640
vt -35.054352 5.623359
vt -18.125212 3.937008
vt -18.125212 4.349158
vt -56.120556 -34.287861
vt -7.236042 -34.320839
vt -7.236042 -34.287861
vt -56.120556 -34.320839
vt -56.120556 35.448616
vt -56.120556 18.468019
vt -7.236041 18.468019
vt -7.236041 35.448616
vt 7.236042 -34.246853
vt 7.236042 -34.279827
vt 56.120556 -34.246853
vt 56.120556 -34.279827
vn 1.0000 0.0000 0.0000
vn 0.0995 0.0000 -0.9950
vn 0.0000 -1.0000 0.0000
vn -1.0000 0.0000 0.0000
vn 0.0000 1.0000 0.0000
vn -0.0995 0.0000 -0.9950
vn -0.0995 -0.0000 0.9950
vn 0.0995 -0.0000 0.9950
usemtl None
s 1
f 2/1/1 3/2/1 4/3/1
f 4/3/1 1/4/1 2/1/1
f 6/5/2 7/6/2 8/7/2
f 8/7/2 5/8/2 6/5/2
f 6/9/3 5/10/3 10/11/3
f 10/11/3 5/10/3 9/12/3
f 5/10/3 4/13/3 9/12/3
f 4/13/3 5/10/3 1/14/3
f 11/15/4 7/16/4 6/17/4
f 6/17/4 10/18/4 11/15/4
f 12/19/5 3/20/5 8/21/5
f 8/21/5 3/20/5 2/22/5
f 8/21/5 7/23/5 11/24/5
f 8/21/5 11/24/5 12/19/5
f 8/25/6 1/26/6 5/27/6
f 1/26/6 8/25/6 2/28/6
f 12/29/7 11/30/7 10/31/7
f 10/31/7 9/32/7 12/29/7
f 9/33/8 4/34/8 12/35/8
f 3/36/8 12/35/8 4/34/8
