# Blender v3.2.2 OBJ File: ''
# www.blender.org
mtllib M2-Telhado01.mtl
o Telhado_básico_Genérico_-_125_mm_[290205]_Telhado_básico_Gen
v 10.671995 2.205545 1.714743
v 10.671995 2.205545 1.840367
v 10.671995 17.105545 1.840368
v 10.671995 17.105545 1.714745
v 10.674565 2.205545 1.840623
v 11.524566 2.205545 1.755624
v 11.524566 9.905545 1.755625
v 10.674565 17.105545 1.840625
v 15.824566 17.105545 1.325625
v 15.824566 9.905545 1.325624
v 11.524566 2.205545 1.630000
v 11.524566 9.905545 1.630001
v 10.674565 2.205545 1.715000
v 10.674565 17.105545 1.715002
v 15.824566 17.105545 1.200002
v 15.824566 9.905545 1.200001
vt 1.160843 -6.662147
vt 1.160843 -7.074297
vt 50.045357 -7.074297
vt 50.045357 -6.662147
vt 7.236042 -34.246853
vt 7.236042 -37.049477
vt 32.498508 -37.049477
vt 56.120556 -34.246853
vt 56.120556 -51.227448
vt 32.498508 -51.227448
vt 7.236041 5.759920
vt 7.236041 5.347769
vt 32.498508 5.759920
vt 32.498508 5.347769
vt 35.021542 6.038791
vt 35.013107 6.037948
vt 35.021542 5.626640
vt 35.013107 5.625797
vt 37.810253 5.347769
vt 37.810253 5.759920
vt -32.498508 -37.090485
vt -7.236042 -37.090485
vt -7.236042 -34.287861
vt -56.120556 -34.287861
vt -56.120556 -51.268459
vt -32.498508 -51.268459
vt 37.810253 5.759920
vt 37.810253 5.347769
vt 51.917866 4.349158
vt 51.917866 3.937008
vt 32.498508 4.349158
vt 32.498508 3.937008
vt 56.120556 4.349158
vt 56.120556 3.937008
vt 7.236041 35.407604
vt 56.120556 35.399132
vt 56.120556 35.407604
vt 7.236041 35.399132
vt -51.917866 3.937008
vt -35.021538 5.626640
vt -51.917866 4.349158
vt -35.021538 6.038791
vt -35.013107 6.037948
vt -35.013107 5.625797
vt -56.120556 35.448616
vt -56.120556 35.440140
vt -7.236041 35.448616
vt -7.236041 35.440140
vn -1.0000 0.0000 0.0000
vn 0.0995 -0.0000 0.9950
vn 1.0000 0.0000 0.0000
vn 0.0000 -1.0000 0.0000
vn -0.0995 0.0000 -0.9950
vn 0.0995 0.0000 -0.9950
vn 0.0000 1.0000 0.0000
vn -0.0995 -0.0000 0.9950
vn -0.0991 -0.0000 0.9951
usemtl None
s 1
f 1/1/1 2/2/1 3/3/1
f 3/3/1 4/4/1 1/1/1
f 5/5/2 6/6/2 7/7/2
f 5/5/2 7/7/2 8/8/2
f 9/9/2 8/8/2 7/7/2
f 9/9/2 7/7/2 10/10/2
f 6/11/3 11/12/3 7/13/3
f 12/14/3 7/13/3 11/12/3
f 5/15/4 2/16/4 13/17/4
f 13/17/4 2/16/4 1/18/4
f 13/17/4 11/19/4 6/20/4
f 13/17/4 6/20/4 5/15/4
f 12/21/5 11/22/5 13/23/5
f 14/24/5 12/21/5 13/23/5
f 12/21/5 14/24/5 15/25/5
f 16/26/5 12/21/5 15/25/5
f 7/27/4 12/28/4 10/29/4
f 16/30/4 10/29/4 12/28/4
f 10/31/3 16/32/3 9/33/3
f 15/34/3 9/33/3 16/32/3
f 13/35/6 4/36/6 14/37/6
f 4/36/6 13/35/6 1/38/6
f 15/39/7 14/40/7 9/41/7
f 9/41/7 14/40/7 8/42/7
f 14/40/7 3/43/7 8/42/7
f 3/43/7 14/40/7 4/44/7
f 8/45/8 3/46/8 5/47/9
f 2/48/9 5/47/9 3/46/8
