# Blender v3.2.2 OBJ File: ''
# www.blender.org
mtllib M2-TelhadoCaixa.mtl
o Telhado_básico_Genérico_-_125_mm_[289885]_Telhado_básico_Genérico_-_125_mm_[289885]_Geometry
v 2.224565 13.105546 3.326399
v 5.524565 13.105546 3.821399
v 5.524565 13.105546 3.695001
v 2.224565 13.105546 3.200001
v 2.224565 6.405545 3.326399
v 2.224565 6.405545 3.200000
v 5.524565 6.405545 3.821399
v 5.524565 6.405545 3.695000
vt -18.125214 12.537396
vt -18.125214 12.122704
vt -7.298442 10.913381
vt -7.298442 10.498688
vt -42.997196 10.913381
vt -42.997196 10.498688
vt -21.015570 10.498688
vt -21.015570 10.913381
vt 7.298442 10.913381
vt 7.298442 10.498688
vt 18.125214 12.122704
vt 18.125214 12.537396
vt 21.015568 12.537396
vt 21.015568 12.122704
vt 42.997196 12.122704
vt 42.997196 12.537396
vt 21.015568 8.775075
vt 42.997196 8.775075
vt 42.997196 19.722969
vt 21.015568 19.722969
vt -42.997196 19.784485
vt -42.997196 8.836591
vt -21.015568 8.836591
vt -21.015568 19.784485
vn 0.0000 1.0000 0.0000
vn -1.0000 0.0000 0.0000
vn 0.0000 -1.0000 0.0000
vn 1.0000 -0.0000 0.0000
vn 0.1483 0.0000 -0.9889
vn -0.1483 -0.0000 0.9889
usemtl None
s 1
f 2/1/1 3/2/1 1/3/1
f 4/4/1 1/3/1 3/2/1
f 1/5/2 4/6/2 6/7/2
f 6/7/2 5/8/2 1/5/2
f 5/9/3 6/10/3 8/11/3
f 8/11/3 7/12/3 5/9/3
f 7/13/4 8/14/4 3/15/4
f 3/15/4 2/16/4 7/13/4
f 6/17/5 4/18/5 3/19/5
f 3/19/5 8/20/5 6/17/5
f 2/21/6 1/22/6 5/23/6
f 5/23/6 7/24/6 2/21/6
