# Blender v3.1.2 OBJ File: ''
# www.blender.org
mtllib Telhado-Telhado.mtl
o Telhado_básico_Genérico_-_125_mm_[289233]_Telhado_básico_Genérico_-_125_mm_[289233]_Geometry
v -1.936125 -1.027174 7.697359
v -1.936125 0.472826 7.697359
v -1.936125 0.472826 7.567949
v -1.936125 -1.027174 7.567949
v -2.936125 0.472826 7.429410
v -2.936125 0.472826 7.300000
v -2.936125 2.272825 7.300000
v -1.536125 2.272825 7.675129
v -1.536125 -1.027174 7.675129
v -0.136125 2.272825 7.300000
v -0.136125 -1.027174 7.300000
v -2.936125 2.272825 7.429410
v -1.536125 -1.027174 7.804538
v -1.536125 2.272825 7.804538
v -0.136125 2.272825 7.429410
v -0.136125 -1.027174 7.429410
vt -1.551266 12.130442
vt -1.551266 11.705870
vt 3.369994 11.705870
vt 3.369994 12.130442
vt -9.632956 11.251344
vt -9.632956 10.826772
vt -6.352116 11.705870
vt -6.352116 12.130442
vt 1.551266 -3.105971
vt 7.456778 -6.502546
vt 7.456778 -1.747340
vt 1.551266 -6.502546
vt -3.369994 -1.747340
vt -3.369994 -3.105971
vt -7.456778 3.233561
vt 3.369994 3.233561
vt 3.369994 7.988767
vt -7.456778 7.988767
vt -7.456778 -1.637453
vt -7.456778 -6.392659
vt -1.551266 -2.996083
vt -1.551266 -6.392659
vt 3.369994 -1.637453
vt 3.369994 -2.996083
vt -3.369994 8.098654
vt -3.369994 3.343448
vt 7.456778 3.343448
vt 7.456778 8.098654
vt -7.456778 11.251344
vt -7.456778 10.826772
vt -1.551266 11.251344
vt -1.551266 10.826772
vt -3.369994 11.251344
vt -3.369994 10.826772
vt 7.456778 11.251344
vt 7.456778 10.826772
vt 0.446604 10.826772
vt 5.039780 12.057509
vt 0.446604 11.251344
vt 5.039780 12.482081
vt 9.632956 11.251344
vt 9.632956 10.826772
vt -5.039780 12.482081
vt -6.352116 12.130442
vt -5.039780 12.057509
vt -6.352116 11.705870
vt -0.446604 10.826772
vt -0.446604 11.251344
vn -1.0000 0.0000 0.0000
vn 0.0000 -1.0000 0.0000
vn 0.2588 -0.0000 -0.9659
vn -0.2588 0.0000 -0.9659
vn -0.2588 0.0000 0.9659
vn 0.2588 0.0000 0.9659
vn 1.0000 0.0000 0.0000
vn 0.0000 1.0000 0.0000
usemtl None
s 1
f 2/1/1 3/2/1 4/3/1
f 4/3/1 1/4/1 2/1/1
f 5/5/2 6/6/2 3/7/2
f 3/7/2 2/8/2 5/5/2
f 3/9/3 7/10/3 8/11/3
f 6/12/3 7/10/3 3/9/3
f 9/13/3 3/9/3 8/11/3
f 3/9/3 9/13/3 4/14/3
f 10/15/4 11/16/4 9/17/4
f 9/17/4 8/18/4 10/15/4
f 14/19/5 12/20/5 2/21/5
f 2/21/5 12/20/5 5/22/5
f 14/19/5 2/21/5 13/23/5
f 1/24/5 13/23/5 2/21/5
f 13/25/6 16/26/6 15/27/6
f 15/27/6 14/28/6 13/25/6
f 12/29/1 7/30/1 5/31/1
f 6/32/1 5/31/1 7/30/1
f 16/33/7 11/34/7 15/35/7
f 10/36/7 15/35/7 11/34/7
f 10/37/8 8/38/8 15/39/8
f 15/39/8 8/38/8 14/40/8
f 8/38/8 12/41/8 14/40/8
f 12/41/8 8/38/8 7/42/8
f 13/43/2 1/44/2 9/45/2
f 9/45/2 1/44/2 4/46/2
f 9/45/2 11/47/2 16/48/2
f 9/45/2 16/48/2 13/43/2
