# Blender v3.1.2 OBJ File: ''
# www.blender.org
mtllib Telhado-Parede.mtl
o Parede_básica_Genérico_-_200_mm_[288832]_Parede_básica_Genérico_-_200_mm_[288832]_Geometry
v -3.136125 0.272826 6.924370
v -3.136125 2.472826 6.924370
v -2.936125 2.472826 6.924370
v -2.936125 2.272825 6.924370
v -2.936125 0.472826 6.924370
v -2.936125 0.272826 6.924370
v -3.136125 0.272826 8.000000
v -3.136125 2.472826 8.000000
v -2.936125 0.272826 8.000000
v -2.936125 0.472825 8.000000
v -2.936125 2.272825 8.000000
v -2.936125 2.472826 8.000000
vt -9.543119 0.366848
vt -9.543119 -6.851000
vt -8.886951 -6.194832
vt -8.886951 -6.851000
vt -8.886951 -0.289320
vt -8.886951 0.366848
vt -0.328084 26.246719
vt -0.328084 22.717749
vt 6.889764 22.717749
vt 6.889764 26.246719
vt -0.328084 26.246719
vt -0.328084 22.717749
vt 0.328084 22.717749
vt 0.328084 26.246719
vt -0.328084 -0.328084
vt 6.889764 -0.328084
vt 6.233596 0.328084
vt 6.889764 0.328084
vt 0.328084 0.328084
vt -0.328084 0.328084
vt 9.514436 26.246719
vt 9.514436 22.717749
vt 10.170604 22.717749
vt 10.170604 26.246719
vt -6.889764 22.717749
vt -6.233596 22.717749
vt -6.233596 26.246719
vt -6.889764 26.246719
vt -0.328084 26.246719
vt -0.328084 22.717749
vt 0.328084 22.717749
vt 0.328084 26.246719
vn 0.0000 0.0000 -1.0000
vn -1.0000 0.0000 0.0000
vn 0.0000 -1.0000 -0.0000
vn 0.0000 0.0000 1.0000
vn 0.0000 1.0000 0.0000
vn 1.0000 0.0000 0.0000
usemtl None
s 1
f 1/1/1 2/2/1 4/3/1
f 4/3/1 2/2/1 3/4/1
f 1/1/1 4/3/1 5/5/1
f 5/5/1 6/6/1 1/1/1
f 8/7/2 2/8/2 1/9/2
f 1/9/2 7/10/2 8/7/2
f 7/11/3 1/12/3 6/13/3
f 6/13/3 9/14/3 7/11/3
f 8/15/4 7/16/4 10/17/4
f 10/17/4 7/16/4 9/18/4
f 8/15/4 10/17/4 11/19/4
f 11/19/4 12/20/4 8/15/4
f 12/21/5 3/22/5 2/23/5
f 2/23/5 8/24/5 12/21/5
f 6/25/6 5/26/6 10/27/6
f 10/27/6 9/28/6 6/25/6
f 5/26/6 11/29/6 10/27/6
f 4/30/6 3/31/6 11/29/6
f 12/32/6 11/29/6 3/31/6
f 4/30/6 11/29/6 5/26/6
o Parede_básica_Genérico_-_200_mm_[288901]_Parede_básica_Genérico_-_200_mm_[288901]_Geometry
v -1.936125 0.272826 6.924370
v -2.136125 0.272826 6.924370
v -2.936125 0.272826 6.924370
v -2.936125 0.472826 6.924370
v -1.936125 0.472826 6.924370
v -1.936125 0.272826 8.000000
v -2.136125 0.272826 8.000000
v -2.936125 0.272826 8.000000
v -1.936125 0.472825 8.000000
v -2.936125 0.472825 8.000000
vt -8.886951 0.366848
vt -8.886951 -0.289320
vt -6.262280 0.366848
vt -5.606112 -0.289320
vt -5.606112 0.366848
vt 0.328084 26.246719
vt 0.328084 22.717749
vt 2.952756 22.717749
vt 2.952756 26.246719
vt 3.608924 22.717749
vt 3.608924 26.246719
vt -0.328084 26.246719
vt -0.328084 22.717749
vt 0.328084 22.717749
vt 0.328084 26.246719
vt 2.952756 -0.328084
vt 3.608924 0.328084
vt 0.328084 0.328084
vt 3.608924 -0.328084
vt 0.328084 -0.328084
vt -0.328084 22.717749
vt -0.328084 26.246719
vt -3.608924 26.246719
vt -3.608924 22.717749
vn 0.0000 0.0000 -1.0000
vn 0.0000 -1.0000 -0.0000
vn 1.0000 0.0000 0.0000
vn 0.0000 0.0000 1.0000
vn -1.0000 0.0000 0.0000
vn 0.0000 1.0000 0.0000
usemtl None
s 1
f 15/33/7 16/34/7 14/35/7
f 14/35/7 17/36/7 13/37/7
f 17/36/7 14/35/7 16/34/7
f 20/38/8 15/39/8 14/40/8
f 20/38/8 14/40/8 19/41/8
f 19/41/8 13/42/8 18/43/8
f 13/42/8 19/41/8 14/40/8
f 18/44/9 13/45/9 17/46/9
f 17/46/9 21/47/9 18/44/9
f 19/48/10 21/49/10 22/50/10
f 21/49/10 19/48/10 18/51/10
f 19/48/10 22/50/10 20/52/10
f 16/53/11 15/39/11 20/38/11
f 20/38/11 22/54/11 16/53/11
f 21/55/12 17/56/12 16/53/12
f 16/53/12 22/54/12 21/55/12
o Parede_básica_Genérico_-_200_mm_[288980]_Parede_básica_Genérico_-_200_mm_[288980]_Geometry
v -2.136125 -1.227174 6.924370
v -2.136125 0.272826 6.924370
v -1.936125 0.272826 6.924370
v -1.936125 -1.027174 6.924370
v -1.936125 -1.227174 6.924370
v -2.136125 -1.227174 8.000000
v -2.136125 0.272826 8.000000
v -1.936125 -1.227174 8.000000
v -1.936125 -1.027174 8.000000
v -1.936125 0.272826 8.000000
vt -6.262280 5.288107
vt -6.262280 0.366848
vt -5.606112 4.631939
vt -5.606112 0.366848
vt -5.606112 5.288107
vt 0.328084 26.246719
vt 0.328084 22.717749
vt 5.249344 26.246719
vt 5.249344 22.717749
vt -0.328084 26.246719
vt -0.328084 22.717749
vt 0.328084 22.717749
vt 0.328084 26.246719
vt 0.328084 -0.328084
vt 5.249344 -0.328084
vt 4.593176 0.328084
vt 5.249344 0.328084
vt 0.328084 0.328084
vt -0.328084 22.717749
vt -0.328084 26.246719
vt -5.249344 26.246719
vt -5.249344 22.717749
vt -4.593176 26.246719
vt -4.593176 22.717749
vn 0.0000 0.0000 -1.0000
vn -1.0000 0.0000 0.0000
vn 0.0000 -1.0000 0.0000
vn 0.0000 0.0000 1.0000
vn 0.0000 1.0000 0.0000
vn 1.0000 0.0000 0.0000
usemtl None
s 1
f 23/57/13 24/58/13 26/59/13
f 25/60/13 26/59/13 24/58/13
f 26/59/13 27/61/13 23/57/13
f 29/62/14 24/63/14 28/64/14
f 23/65/14 28/64/14 24/63/14
f 28/66/15 23/67/15 27/68/15
f 27/68/15 30/69/15 28/66/15
f 29/70/16 28/71/16 31/72/16
f 30/73/16 31/72/16 28/71/16
f 31/72/16 32/74/16 29/70/16
f 25/75/17 24/63/17 29/62/17
f 29/62/17 32/76/17 25/75/17
f 30/77/18 27/78/18 31/79/18
f 31/79/18 27/78/18 26/80/18
f 26/80/18 25/75/18 32/76/18
f 26/80/18 32/76/18 31/79/18
o Parede_básica_Genérico_-_200_mm_[289065]_Parede_básica_Genérico_-_200_mm_[289065]_Geometry
v 0.063875 -1.227174 6.924370
v -1.936125 -1.227174 6.924370
v -1.936125 -1.027174 6.924370
v -0.136125 -1.027174 6.924370
v 0.063875 -1.027174 6.924370
v 0.063875 -1.227174 8.000000
v -1.936125 -1.227174 8.000000
v 0.063875 -1.027174 8.000000
v -0.136125 -1.027174 8.000000
v -1.936125 -1.027174 8.000000
vt -5.606112 5.288107
vt -5.606112 4.631939
vt 0.299400 4.631939
vt 0.955568 4.631939
vt 0.955568 5.288107
vt 0.328084 26.246719
vt 0.328084 22.717749
vt 6.889764 26.246719
vt 6.889764 22.717749
vt -0.328084 26.246719
vt -0.328084 22.717749
vt 0.328084 22.717749
vt 0.328084 26.246719
vt 0.328084 -0.328084
vt 6.889764 -0.328084
vt 6.233596 0.328084
vt 6.889764 0.328084
vt 0.328084 0.328084
vt -0.328084 22.717749
vt -0.328084 26.246719
vt -6.889764 26.246719
vt -6.889764 22.717749
vt -6.233596 26.246719
vt -6.233596 22.717749
vn 0.0000 0.0000 -1.0000
vn 0.0000 -1.0000 0.0000
vn 1.0000 0.0000 0.0000
vn 0.0000 0.0000 1.0000
vn -1.0000 0.0000 0.0000
vn 0.0000 1.0000 0.0000
usemtl None
s 1
f 34/81/19 35/82/19 36/83/19
f 36/83/19 37/84/19 33/85/19
f 36/83/19 33/85/19 34/81/19
f 39/86/20 34/87/20 38/88/20
f 33/89/20 38/88/20 34/87/20
f 38/90/21 33/91/21 37/92/21
f 37/92/21 40/93/21 38/90/21
f 39/94/22 38/95/22 41/96/22
f 40/97/22 41/96/22 38/95/22
f 41/96/22 42/98/22 39/94/22
f 35/99/23 34/87/23 39/86/23
f 39/86/23 42/100/23 35/99/23
f 40/101/24 37/102/24 41/103/24
f 41/103/24 37/102/24 36/104/24
f 36/104/24 35/99/24 42/100/24
f 36/104/24 42/100/24 41/103/24
o Parede_básica_Genérico_-_200_mm_[289145]_Parede_básica_Genérico_-_200_mm_[289145]_Geometry
v 0.063875 2.472826 6.924370
v 0.063875 -1.027174 6.924370
v -0.136125 -1.027174 6.924370
v -0.136125 2.272825 6.924370
v -0.136125 2.472826 6.924370
v 0.063875 2.472826 8.000000
v 0.063875 -1.027174 8.000000
v -0.136125 2.472826 8.000000
v -0.136125 2.272825 8.000000
v -0.136125 -1.027174 8.000000
vt 0.299400 -6.194832
vt 0.955568 -6.851000
vt 0.955568 4.631939
vt 0.299400 -6.851000
vt 0.299400 4.631939
vt 0.328084 26.246719
vt 0.328084 22.717749
vt 11.811024 22.717749
vt 11.811024 26.246719
vt -0.328084 26.246719
vt -0.328084 22.717749
vt 0.328084 22.717749
vt 0.328084 26.246719
vt 0.328084 -0.328084
vt 11.811024 -0.328084
vt 11.154856 0.328084
vt 11.811024 0.328084
vt 0.328084 0.328084
vt -0.328084 22.717749
vt -0.328084 26.246719
vt -11.811024 26.246719
vt -11.811024 22.717749
vt -11.154856 26.246719
vt -11.154856 22.717749
vn 0.0000 0.0000 -1.0000
vn 1.0000 0.0000 0.0000
vn 0.0000 1.0000 0.0000
vn 0.0000 0.0000 1.0000
vn 0.0000 -1.0000 0.0000
vn -1.0000 0.0000 0.0000
usemtl None
s 1
f 46/105/25 43/106/25 44/107/25
f 43/106/25 46/105/25 47/108/25
f 46/105/25 44/107/25 45/109/25
f 49/110/26 44/111/26 43/112/26
f 43/112/26 48/113/26 49/110/26
f 48/114/27 43/115/27 47/116/27
f 47/116/27 50/117/27 48/114/27
f 49/118/28 48/119/28 51/120/28
f 50/121/28 51/120/28 48/119/28
f 51/120/28 52/122/28 49/118/28
f 45/123/29 44/111/29 49/110/29
f 49/110/29 52/124/29 45/123/29
f 50/125/30 47/126/30 51/127/30
f 51/127/30 47/126/30 46/128/30
f 46/128/30 45/123/30 52/124/30
f 46/128/30 52/124/30 51/127/30
o Parede_básica_Genérico_-_200_mm_[289210]_Parede_básica_Genérico_-_200_mm_[289210]_Geometry
v -2.936125 2.472826 6.924370
v -0.136125 2.472826 6.924370
v -0.136125 2.272825 6.924370
v -2.936125 2.272825 6.924370
v -2.936125 2.472826 8.000000
v -0.136125 2.472826 8.000000
v -2.936125 2.272825 8.000000
v -0.136125 2.272825 8.000000
vt -8.886951 -6.194832
vt -8.886951 -6.851000
vt 0.299400 -6.851000
vt 0.299400 -6.194832
vt 0.328084 26.246719
vt 0.328084 22.717749
vt 9.514436 22.717749
vt 9.514436 26.246719
vt -0.328084 22.717749
vt 0.328084 22.717749
vt 0.328084 26.246719
vt -0.328084 26.246719
vt 0.328084 -0.328084
vt 9.514436 -0.328084
vt 9.514436 0.328084
vt 0.328084 0.328084
vt -0.328084 22.717749
vt -0.328084 26.246719
vt -9.514436 26.246719
vt -9.514436 22.717749
vn 0.0000 0.0000 -1.0000
vn 0.0000 1.0000 0.0000
vn -1.0000 0.0000 0.0000
vn 0.0000 0.0000 1.0000
vn 1.0000 0.0000 0.0000
vn 0.0000 -1.0000 0.0000
usemtl None
s 1
f 56/129/31 53/130/31 54/131/31
f 54/131/31 55/132/31 56/129/31
f 58/133/32 54/134/32 53/135/32
f 53/135/32 57/136/32 58/133/32
f 53/137/33 56/138/33 59/139/33
f 59/139/33 57/140/33 53/137/33
f 58/141/34 57/142/34 59/143/34
f 59/143/34 60/144/34 58/141/34
f 55/145/35 54/134/35 58/133/35
f 58/133/35 60/146/35 55/145/35
f 59/147/36 56/148/36 55/145/36
f 55/145/36 60/146/36 59/147/36
