# Blender 3.3.0
# www.blender.org
mtllib MV01-Paredes.mtl
o Parede_básica_Genérico_-_2,5_cm_[290009]
v 1.332844 7.181545 -0.580000
v 0.772844 7.181545 -0.580000
v 0.772844 7.181545 0.200000
v 1.332844 7.181545 0.200000
v 1.332844 7.156546 -0.580000
v 1.332844 7.156546 0.200000
v 1.307844 7.156546 0.200000
v 0.797844 7.156546 0.200000
v 0.772844 7.156546 0.200000
v 0.772844 7.156546 -0.580000
v 0.797844 7.156546 -0.580000
v 1.307844 7.156546 -0.580000
vn -0.0000 1.0000 -0.0000
vn -0.0000 -1.0000 -0.0000
vn -0.0000 -0.0000 -1.0000
vn -0.0000 -0.0000 1.0000
vn -1.0000 -0.0000 -0.0000
vn 1.0000 -0.0000 -0.0000
vt -0.041010 -1.902887
vt -0.041010 0.041010
vt 1.796260 -1.902887
vt 1.796260 -1.902887
vt 1.796260 0.041010
vt -0.041010 -1.902887
vt 1.796260 0.656168
vt 1.796260 -0.041010
vt -0.041010 0.656168
vt -0.041010 0.656168
vt -0.041011 -0.041010
vt 1.796260 0.656168
vt 0.041010 -1.902887
vt -0.041010 -0.041010
vt 1.714239 -1.902887
vt 0.041010 0.656168
vt -0.041011 0.041010
vt 1.714239 0.656168
vt -0.041010 0.656168
vt 0.041010 0.041010
vt -1.714239 0.656168
vt 1.714239 0.041010
vt -1.796260 0.656168
vt 1.796260 0.041010
vt 0.041010 0.656168
vt -1.796260 -1.902887
vt 1.796260 -0.041010
vt 0.041010 -1.902887
vt -1.714239 -1.902887
vt 1.714239 -0.041010
vt -0.041010 -1.902887
vt 0.041010 -0.041010
s 1
f 4/10/1 1/1/1 2/4/1
f 2/4/1 3/7/1 4/10/1
f 10/26/2 11/29/2 9/23/2
f 8/21/2 9/23/2 11/29/2
f 11/29/2 7/19/2 8/21/2
f 12/31/2 5/13/2 6/16/2
f 6/16/2 7/19/2 12/31/2
f 12/31/2 7/19/2 11/29/2
f 2/5/3 1/2/3 12/32/3
f 12/32/3 1/2/3 5/14/3
f 2/5/3 12/32/3 11/30/3
f 11/30/3 10/27/3 2/5/3
f 4/11/4 3/8/4 8/22/4
f 8/22/4 3/8/4 9/24/4
f 4/11/4 8/22/4 7/20/4
f 7/20/4 6/17/4 4/11/4
f 3/9/5 2/6/5 9/25/5
f 10/28/5 9/25/5 2/6/5
f 6/18/6 5/15/6 4/12/6
f 1/3/6 4/12/6 5/15/6
o Parede_básica_Genérico_-_2,5_cm_[290119]
v 0.772844 7.156546 -0.580000
v 0.772844 6.621545 -0.580000
v 0.772844 6.621545 0.200000
v 0.772844 7.156546 0.200000
v 0.797844 7.156546 -0.580000
v 0.797844 7.156546 0.200000
v 0.797844 6.646545 0.200000
v 0.797844 6.621545 0.200000
v 0.797844 6.621545 -0.580000
v 0.797844 6.646545 -0.580000
vn -1.0000 -0.0000 -0.0000
vn 1.0000 -0.0000 -0.0000
vn -0.0000 -0.0000 -1.0000
vn -0.0000 -0.0000 1.0000
vn -0.0000 1.0000 -0.0000
vn -0.0000 -1.0000 -0.0000
vt 0.041010 0.041010
vt 0.041011 -1.902887
vt 1.796260 -1.902887
vt 1.796260 0.041010
vt -0.041010 -1.902887
vt 1.796260 0.656168
vt 1.796260 -0.041010
vt -0.041010 0.656168
vt 0.041010 -0.041010
vt 0.041011 0.656168
vt 0.041010 -0.041010
vt -0.041010 -1.902887
vt 0.041010 0.041010
vt -0.041010 0.656168
vt -1.714239 0.656168
vt 1.714239 0.041010
vt -1.796260 0.656168
vt 1.796260 0.041010
vt 0.041010 0.656168
vt -1.796260 -1.902887
vt 1.796260 -0.041010
vt 0.041010 -1.902887
vt -1.714239 -1.902887
vt 1.714239 -0.041010
s 1
f 16/42/7 13/34/7 14/35/7
f 14/35/7 15/38/7 16/42/7
f 19/47/8 20/49/8 22/55/8
f 22/55/8 20/49/8 21/52/8
f 22/55/8 17/44/8 18/46/8
f 22/55/8 18/46/8 19/47/8
f 14/36/9 13/33/9 22/56/9
f 17/43/9 22/56/9 13/33/9
f 22/56/9 21/53/9 14/36/9
f 16/41/10 15/39/10 19/48/10
f 20/50/10 19/48/10 15/39/10
f 19/48/10 18/45/10 16/41/10
f 17/44/11 13/34/11 16/42/11
f 16/42/11 18/46/11 17/44/11
f 15/40/12 14/37/12 21/54/12
f 21/54/12 20/51/12 15/40/12
o Parede_básica_Genérico_-_2,5_cm_[290163]
v 0.797844 6.621545 -0.580000
v 1.332844 6.621545 -0.580000
v 1.332844 6.621545 0.200000
v 0.797844 6.621545 0.200000
v 0.797844 6.646545 -0.580000
v 0.797844 6.646545 0.200000
v 1.307844 6.646545 0.200000
v 1.332844 6.646545 0.200000
v 1.332844 6.646545 -0.580000
v 1.307844 6.646545 -0.580000
vn -0.0000 -1.0000 -0.0000
vn -0.0000 1.0000 -0.0000
vn -0.0000 -0.0000 -1.0000
vn -0.0000 -0.0000 1.0000
vn -1.0000 -0.0000 -0.0000
vn 1.0000 -0.0000 -0.0000
vt 0.041010 0.041010
vt 0.041011 -1.902887
vt 1.796260 -1.902887
vt 1.796260 0.041010
vt -0.041010 -1.902887
vt 1.796260 0.656168
vt 1.796260 -0.041010
vt -0.041010 0.656168
vt 0.041010 -0.041010
vt 0.041011 0.656168
vt 0.041010 -0.041010
vt -0.041010 -1.902887
vt 0.041010 0.041010
vt -0.041010 0.656168
vt -1.714239 0.656168
vt 1.714239 0.041010
vt -1.796260 0.656168
vt 1.796260 0.041010
vt 0.041010 0.656168
vt -1.796260 -1.902887
vt 1.796260 -0.041010
vt 0.041010 -1.902887
vt -1.714239 -1.902887
vt 1.714239 -0.041010
s 1
f 26/66/13 23/58/13 24/59/13
f 24/59/13 25/62/13 26/66/13
f 29/71/14 30/73/14 32/79/14
f 32/79/14 30/73/14 31/76/14
f 32/79/14 27/68/14 28/70/14
f 32/79/14 28/70/14 29/71/14
f 24/60/15 23/57/15 32/80/15
f 27/67/15 32/80/15 23/57/15
f 32/80/15 31/77/15 24/60/15
f 26/65/16 25/63/16 29/72/16
f 30/74/16 29/72/16 25/63/16
f 29/72/16 28/69/16 26/65/16
f 28/70/17 23/58/17 26/66/17
f 23/58/17 28/70/17 27/68/17
f 25/64/18 24/61/18 30/75/18
f 31/78/18 30/75/18 24/61/18
o Parede_básica_Genérico_-_2,5_cm_[290200]
v 1.332844 6.646545 -0.580000
v 1.332844 7.156546 -0.580000
v 1.332844 7.156546 0.200000
v 1.332844 6.646545 0.200000
v 1.307844 6.646545 -0.580000
v 1.307844 6.646545 0.200000
v 1.307844 7.156546 0.200000
v 1.307844 7.156546 -0.580000
vn 1.0000 -0.0000 -0.0000
vn -1.0000 -0.0000 -0.0000
vn -0.0000 -0.0000 -1.0000
vn -0.0000 -0.0000 1.0000
vn -0.0000 1.0000 -0.0000
vn -0.0000 -1.0000 -0.0000
vt 0.041010 0.041010
vt 0.041011 -1.902887
vt 1.714239 -1.902887
vt 1.714239 0.041010
vt -0.041010 -1.902887
vt 1.714239 0.656168
vt 1.714239 -0.041010
vt -0.041010 0.656168
vt 0.041010 -0.041010
vt 0.041011 0.656168
vt 0.041010 -0.041010
vt -0.041010 -1.902887
vt 0.041010 0.041010
vt -0.041010 0.656168
vt -1.714239 0.656168
vt 1.714239 0.041010
vt 0.041010 0.656168
vt -1.714239 -1.902887
vt 1.714239 -0.041010
vt 0.041010 -1.902887
s 1
f 36/90/19 33/82/19 34/83/19
f 34/83/19 35/86/19 36/90/19
f 39/95/20 40/98/20 37/92/20
f 37/92/20 38/94/20 39/95/20
f 34/84/21 33/81/21 40/99/21
f 37/91/21 40/99/21 33/81/21
f 36/89/22 35/87/22 39/96/22
f 39/96/22 38/93/22 36/89/22
f 34/85/23 40/100/23 39/97/23
f 39/97/23 35/88/23 34/85/23
f 37/92/24 33/82/24 36/90/24
f 36/90/24 38/94/24 37/92/24
o Parede_básica_Genérico_-_2,5_cm_[290403]
v 2.082844 7.176546 -0.580000
v 1.532844 7.176546 -0.580000
v 1.532844 7.176546 -0.220000
v 2.082844 7.176546 -0.220000
v 2.082844 7.151546 -0.580000
v 2.082844 7.151546 -0.220000
v 2.057844 7.151546 -0.220000
v 1.532844 7.151546 -0.220000
v 1.532844 7.151546 -0.220353
v 1.532844 7.151546 -0.580000
v 1.557844 7.151546 -0.580000
v 2.057844 7.151546 -0.580000
vn -0.0000 1.0000 -0.0000
vn -0.0000 -1.0000 -0.0000
vn -0.0000 -0.0000 -1.0000
vn -0.0000 -0.0000 1.0000
vn -1.0000 -0.0000 -0.0000
vn 1.0000 -0.0000 -0.0000
vt -0.041010 -1.902887
vt -0.041010 0.041010
vt 1.763451 -1.902887
vt 1.763451 -1.902887
vt 1.763451 0.041010
vt -0.041010 -1.902887
vt 1.763451 -0.721785
vt 1.763451 -0.041010
vt -0.041010 -0.721785
vt -0.041010 -0.721785
vt -0.041011 -0.041010
vt 1.763451 -0.721785
vt 0.041010 -1.902887
vt -0.041010 -0.041010
vt 1.681430 -1.902887
vt 0.041010 -0.721785
vt -0.041011 0.041010
vt 1.681430 -0.721785
vt -0.041010 -0.721785
vt 0.041010 0.041010
vt -1.763451 -0.721785
vt 1.763451 0.041010
vt 0.041010 -0.721785
vt -1.763451 -0.722943
vt 0.041010 -0.722943
vt -1.763451 -1.902887
vt 1.763451 -0.041010
vt 0.041010 -1.902887
vt -1.681430 -1.902887
vt 1.681430 -0.041010
vt -0.041010 -1.902887
vt 0.041010 -0.041010
s 1
f 44/110/25 41/101/25 42/104/25
f 42/104/25 43/107/25 44/110/25
f 50/126/26 51/129/26 49/124/26
f 47/119/26 48/121/26 49/124/26
f 49/124/26 51/129/26 47/119/26
f 52/131/26 45/113/26 47/119/26
f 46/116/26 47/119/26 45/113/26
f 52/131/26 47/119/26 51/129/26
f 42/105/27 41/102/27 52/132/27
f 52/132/27 41/102/27 45/114/27
f 42/105/27 52/132/27 51/130/27
f 51/130/27 50/127/27 42/105/27
f 44/111/28 43/108/28 47/120/28
f 48/122/28 47/120/28 43/108/28
f 47/120/28 46/117/28 44/111/28
f 43/109/29 42/106/29 49/125/29
f 50/128/29 49/125/29 42/106/29
f 49/125/29 48/123/29 43/109/29
f 46/118/30 45/115/30 41/103/30
f 41/103/30 44/112/30 46/118/30
o Parede_básica_Genérico_-_2,5_cm_[290404]
v 1.532844 7.151546 -0.580000
v 1.532844 6.626545 -0.580000
v 1.532844 6.626545 -0.220353
v 1.532844 7.151546 -0.220353
v 1.557844 7.151546 -0.580000
v 1.557844 7.151546 -0.220353
v 1.557844 6.626545 -0.220353
v 1.557844 6.626545 -0.580000
v 1.557844 6.651546 -0.580000
vn -1.0000 -0.0000 -0.0000
vn 1.0000 -0.0000 -0.0000
vn -0.0000 -0.0000 -1.0000
vn -0.0000 -0.0000 1.0000
vn -0.0000 1.0000 -0.0000
vn -0.0000 -1.0000 -0.0000
vt 0.041010 0.041010
vt 0.041011 -1.902887
vt 1.763451 -1.902887
vt 1.763451 0.041010
vt -0.041010 -1.902887
vt 1.763451 -0.722943
vt 1.763451 -0.041010
vt -0.041010 -0.722943
vt 0.041010 -0.041010
vt 0.041011 -0.722943
vt 0.041010 -0.041010
vt -0.041010 -1.902887
vt 0.041010 0.041010
vt -0.041010 -0.722943
vt -1.763451 -0.722943
vt 1.763451 0.041010
vt 0.041010 -0.722943
vt -1.763451 -1.902887
vt 1.763451 -0.041010
vt 0.041010 -1.902887
vt -1.681430 -1.902887
vt 1.681430 -0.041010
s 1
f 56/142/31 53/134/31 54/135/31
f 54/135/31 55/138/31 56/142/31
f 59/147/32 60/150/32 61/153/32
f 61/153/32 57/144/32 58/146/32
f 61/153/32 58/146/32 59/147/32
f 54/136/33 53/133/33 61/154/33
f 57/143/33 61/154/33 53/133/33
f 61/154/33 60/151/33 54/136/33
f 56/141/34 55/139/34 59/148/34
f 59/148/34 58/145/34 56/141/34
f 57/144/35 53/134/35 56/142/35
f 56/142/35 58/146/35 57/144/35
f 55/140/36 54/137/36 60/152/36
f 60/152/36 59/149/36 55/140/36
o Parede_básica_Genérico_-_2,5_cm_[290405]
v 1.557844 6.626545 -0.580000
v 2.082844 6.626545 -0.580000
v 2.082844 6.626545 -0.220000
v 1.557844 6.626545 -0.220000
v 1.557844 6.626545 -0.220353
v 1.557844 6.651546 -0.580000
v 1.557844 6.651546 -0.220000
v 2.057844 6.651546 -0.220000
v 2.082844 6.651546 -0.220000
v 2.082844 6.651546 -0.580000
v 2.057844 6.651546 -0.580000
vn -0.0000 -1.0000 -0.0000
vn -0.0000 1.0000 -0.0000
vn -0.0000 -0.0000 -1.0000
vn -0.0000 -0.0000 1.0000
vn -1.0000 -0.0000 -0.0000
vn 1.0000 -0.0000 -0.0000
vt 0.041010 0.041010
vt 0.041010 -1.902887
vt 1.763451 -1.902887
vt 1.763451 0.041010
vt -0.041010 -1.902887
vt 1.763451 -0.721785
vt 1.763451 -0.041010
vt -0.041010 -0.721785
vt 0.041010 -0.041010
vt 0.041010 -0.721785
vt 0.041010 -0.722943
vt 0.041010 -0.041010
vt -0.041011 -1.902887
vt 0.041010 0.041010
vt -0.041011 -0.721785
vt -1.681430 -0.721785
vt 1.681430 0.041010
vt -1.763451 -0.721785
vt 1.763451 0.041010
vt 0.041010 -0.721785
vt -1.763451 -1.902887
vt 1.763451 -0.041010
vt 0.041010 -1.902887
vt -1.681430 -1.902887
vt 1.681430 -0.041010
s 1
f 66/165/37 63/157/37 64/160/37
f 63/157/37 66/165/37 62/156/37
f 66/165/37 64/160/37 65/164/37
f 70/172/38 71/175/38 69/170/38
f 69/170/38 71/175/38 72/178/38
f 72/178/38 67/167/38 68/169/38
f 72/178/38 68/169/38 69/170/38
f 63/158/39 62/155/39 72/179/39
f 67/166/39 72/179/39 62/155/39
f 72/179/39 71/176/39 63/158/39
f 65/163/40 64/161/40 69/171/40
f 70/173/40 69/171/40 64/161/40
f 69/171/40 68/168/40 65/163/40
f 68/169/41 67/167/41 66/165/41
f 62/156/41 66/165/41 67/167/41
f 65/164/41 68/169/41 66/165/41
f 64/162/42 63/159/42 71/177/42
f 71/177/42 70/174/42 64/162/42
o Parede_básica_Genérico_-_2,5_cm_[290406]
v 2.082844 6.651546 -0.580000
v 2.082844 7.151546 -0.580000
v 2.082844 7.151546 -0.220000
v 2.082844 6.651546 -0.220000
v 2.057844 6.651546 -0.580000
v 2.057844 6.651546 -0.220000
v 2.057844 7.151546 -0.220000
v 2.057844 7.151546 -0.580000
vn 1.0000 -0.0000 -0.0000
vn -1.0000 -0.0000 -0.0000
vn -0.0000 -0.0000 -1.0000
vn -0.0000 -0.0000 1.0000
vn -0.0000 1.0000 -0.0000
vn -0.0000 -1.0000 -0.0000
vt 0.041010 0.041010
vt 0.041011 -1.902887
vt 1.681430 -1.902887
vt 1.681430 0.041010
vt -0.041010 -1.902887
vt 1.681430 -0.721785
vt 1.681430 -0.041010
vt -0.041010 -0.721785
vt 0.041010 -0.041010
vt 0.041011 -0.721785
vt 0.041010 -0.041010
vt -0.041010 -1.902887
vt 0.041010 0.041010
vt -0.041010 -0.721785
vt -1.681430 -0.721785
vt 1.681430 0.041010
vt 0.041010 -0.721785
vt -1.681430 -1.902887
vt 1.681430 -0.041010
vt 0.041010 -1.902887
s 1
f 76/189/43 73/181/43 74/182/43
f 74/182/43 75/185/43 76/189/43
f 79/194/44 80/197/44 77/191/44
f 77/191/44 78/193/44 79/194/44
f 74/183/45 73/180/45 80/198/45
f 77/190/45 80/198/45 73/180/45
f 76/188/46 75/186/46 79/195/46
f 79/195/46 78/192/46 76/188/46
f 74/184/47 80/199/47 79/196/47
f 79/196/47 75/187/47 74/184/47
f 77/191/48 73/181/48 76/189/48
f 76/189/48 78/193/48 77/191/48
