# Blender 3.3.0
# www.blender.org
mtllib MV01-Telhado.mtl
o Piso_Papel_no_fundo_[291507]
v 1.307844 7.156546 -0.020000
v 1.307844 6.646545 -0.020000
v 0.797844 6.646545 -0.020000
v 0.797844 7.156546 -0.020000
v 1.307844 7.156546 0.000000
v 0.797844 7.156546 0.000000
v 0.797844 6.646545 0.000000
v 1.307844 6.646545 0.000000
vn -0.0000 -0.0000 -1.0000
vn -0.0000 -0.0000 1.0000
vn 1.0000 -0.0000 -0.0000
vn -0.0000 -1.0000 -0.0000
vn -1.0000 -0.0000 -0.0000
vn -0.0000 1.0000 -0.0000
vt 4.290828 -23.479481
vt 23.479481 -0.065617
vt 4.290828 0.065617
vt 4.290828 -21.806252
vt 21.806252 -0.065617
vt 4.290828 -0.065617
vt 2.617599 -21.806252
vt 2.617599 -0.065617
vt -21.806252 -0.065617
vt 2.617599 -23.479481
vt -23.479481 -0.065617
vt 2.617599 0.065617
vt 4.290828 23.479481
vt 23.479481 0.000000
vt 4.290828 -0.000000
vt 2.617599 23.479481
vt -23.479481 0.000000
vt 2.617599 -0.000000
vt 2.617599 21.806252
vt 2.617599 0.000000
vt -21.806252 0.000000
vt 4.290828 21.806252
vt 21.806252 0.000000
vt 4.290828 0.000000
s 1
f 4/10/1 1/1/1 2/4/1
f 2/4/1 3/7/1 4/10/1
f 7/19/2 8/22/2 5/13/2
f 5/13/2 6/16/2 7/19/2
f 2/5/3 1/2/3 5/14/3
f 5/14/3 8/23/3 2/5/3
f 3/8/4 2/6/4 8/24/4
f 8/24/4 7/20/4 3/8/4
f 4/11/5 3/9/5 7/21/5
f 7/21/5 6/17/5 4/11/5
f 1/3/6 4/12/6 6/18/6
f 6/18/6 5/15/6 1/3/6
o Piso_Papel_no_fundo_[291579]
v 2.057844 7.151546 -0.440000
v 2.057844 6.651546 -0.440000
v 1.557844 6.651546 -0.440000
v 1.557844 7.151546 -0.440000
v 2.057844 7.151546 -0.420000
v 1.557844 7.151546 -0.420000
v 1.557844 6.651546 -0.420000
v 2.057844 6.651546 -0.420000
vn -0.0000 -0.0000 -1.0000
vn -0.0000 -0.0000 1.0000
vn 1.0000 -0.0000 -0.0000
vn -0.0000 -1.0000 -0.0000
vn -1.0000 -0.0000 -0.0000
vn -0.0000 1.0000 -0.0000
vt 6.751458 -23.463076
vt 23.463076 -1.443570
vt 6.751458 1.443570
vt 6.751458 -21.822657
vt 21.822657 -1.443570
vt 6.751458 -1.443570
vt 5.111038 -21.822657
vt 5.111038 -1.443570
vt -21.822657 -1.443570
vt 5.111038 -23.463076
vt -23.463076 -1.443570
vt 5.111038 1.443570
vt 6.751458 23.463076
vt 23.463076 -1.377953
vt 6.751458 1.377953
vt 5.111038 23.463076
vt -23.463076 -1.377953
vt 5.111038 1.377953
vt 5.111038 21.822657
vt 5.111038 -1.377953
vt -21.822657 -1.377953
vt 6.751458 21.822657
vt 21.822657 -1.377953
vt 6.751458 -1.377953
s 1
f 12/34/7 9/25/7 11/31/7
f 10/28/7 11/31/7 9/25/7
f 15/43/8 16/46/8 14/40/8
f 13/37/8 14/40/8 16/46/8
f 10/29/9 9/26/9 13/38/9
f 13/38/9 16/47/9 10/29/9
f 11/32/10 10/30/10 16/48/10
f 16/48/10 15/44/10 11/32/10
f 12/35/11 11/33/11 15/45/11
f 15/45/11 14/41/11 12/35/11
f 9/27/12 12/36/12 14/42/12
f 14/42/12 13/39/12 9/27/12
