# Blender 3.3.0
# www.blender.org
mtllib MV02-Telhado.mtl
o Piso_Fundo_tampa_[288886]
v -3.232864 -0.068264 -0.020000
v -3.226808 0.016413 -0.020000
v -3.208763 0.099367 -0.020000
v -3.179096 0.178908 -0.020000
v -3.138410 0.253417 -0.020000
v -3.087535 0.321378 -0.020000
v -3.027507 0.381407 -0.020000
v -2.959546 0.432282 -0.020000
v -2.885036 0.472967 -0.020000
v -2.805495 0.502634 -0.020000
v -2.722542 0.520680 -0.020000
v -2.637864 0.526736 -0.020000
v -2.553187 0.520680 -0.020000
v -2.470233 0.502634 -0.020000
v -2.390692 0.472967 -0.020000
v -2.316183 0.432282 -0.020000
v -2.248222 0.381407 -0.020000
v -2.188194 0.321378 -0.020000
v -2.137319 0.253417 -0.020000
v -2.096633 0.178908 -0.020000
v -2.066966 0.099367 -0.020000
v -2.048921 0.016413 -0.020000
v -2.042864 -0.068264 -0.020000
v -2.048921 -0.152941 -0.020000
v -2.066966 -0.235895 -0.020000
v -2.096633 -0.315436 -0.020000
v -2.137319 -0.389945 -0.020000
v -2.188194 -0.457906 -0.020000
v -2.248222 -0.517935 -0.020000
v -2.316183 -0.568810 -0.020000
v -2.390692 -0.609495 -0.020000
v -2.470233 -0.639162 -0.020000
v -2.553187 -0.657208 -0.020000
v -2.637864 -0.663264 -0.020000
v -2.722542 -0.657208 -0.020000
v -2.805495 -0.639162 -0.020000
v -2.885036 -0.609495 -0.020000
v -2.959546 -0.568810 -0.020000
v -3.027507 -0.517935 -0.020000
v -3.087535 -0.457906 -0.020000
v -3.138410 -0.389945 -0.020000
v -3.179096 -0.315436 -0.020000
v -3.208763 -0.235895 -0.020000
v -3.226808 -0.152941 -0.020000
v -3.232864 -0.068264 0.000000
v -3.226808 -0.152941 0.000000
v -3.208763 -0.235895 0.000000
v -3.179096 -0.315436 0.000000
v -3.138410 -0.389945 0.000000
v -3.087535 -0.457906 0.000000
v -3.027507 -0.517935 0.000000
v -2.959546 -0.568810 0.000000
v -2.885036 -0.609495 0.000000
v -2.805495 -0.639162 0.000000
v -2.722542 -0.657208 0.000000
v -2.637864 -0.663264 0.000000
v -2.553187 -0.657208 0.000000
v -2.470233 -0.639162 0.000000
v -2.390692 -0.609495 0.000000
v -2.316183 -0.568810 0.000000
v -2.248222 -0.517935 0.000000
v -2.188194 -0.457906 0.000000
v -2.137319 -0.389945 0.000000
v -2.096633 -0.315436 0.000000
v -2.066966 -0.235895 0.000000
v -2.048921 -0.152941 0.000000
v -2.042864 -0.068264 0.000000
v -2.048921 0.016413 0.000000
v -2.066966 0.099367 0.000000
v -2.096633 0.178908 0.000000
v -2.137319 0.253417 0.000000
v -2.188194 0.321378 0.000000
v -2.248222 0.381407 0.000000
v -2.316183 0.432282 0.000000
v -2.390692 0.472967 0.000000
v -2.470233 0.502634 0.000000
v -2.553187 0.520680 0.000000
v -2.637864 0.526736 0.000000
v -2.722542 0.520680 0.000000
v -2.805495 0.502634 0.000000
v -2.885036 0.472967 0.000000
v -2.959546 0.432282 0.000000
v -3.027507 0.381407 0.000000
v -3.087535 0.321378 0.000000
v -3.138410 0.253417 0.000000
v -3.179096 0.178908 0.000000
v -3.208763 0.099367 0.000000
v -3.226808 0.016413 0.000000
vn -0.0000 -0.0000 -1.0000
vn -0.0000 -0.0000 1.0000
vn -0.9096 0.4154 -0.0000
vn -0.8413 0.5406 -0.0000
vn -1.0000 -0.0000 -0.0000
vn -0.9898 0.1423 -0.0000
vn -0.7558 0.6549 -0.0000
vn -0.4154 0.9096 -0.0000
vn -0.2817 0.9595 -0.0000
vn -0.1423 0.9898 -0.0000
vn -0.6549 0.7557 -0.0000
vn -0.6549 0.7558 -0.0000
vn -0.5406 0.8413 -0.0000
vn -0.0000 1.0000 -0.0000
vn -0.9595 0.2817 -0.0000
vn 0.4154 0.9096 -0.0000
vn 0.5406 0.8413 -0.0000
vn 0.1423 0.9898 -0.0000
vn 0.2817 0.9595 -0.0000
vn 0.6549 0.7557 -0.0000
vn 0.9096 0.4154 -0.0000
vn 0.9595 0.2817 -0.0000
vn 0.9898 0.1423 -0.0000
vn 0.7557 0.6549 -0.0000
vn 0.8413 0.5406 -0.0000
vn 1.0000 -0.0000 -0.0000
vn 0.9898 -0.1423 -0.0000
vn 0.9096 -0.4154 -0.0000
vn 0.9595 -0.2817 -0.0000
vn 0.8413 -0.5406 -0.0000
vn 0.2817 -0.9595 -0.0000
vn 0.1423 -0.9898 -0.0000
vn 0.7557 -0.6549 -0.0000
vn 0.6549 -0.7557 -0.0000
vn -0.0000 -1.0000 -0.0000
vn 0.5406 -0.8413 -0.0000
vn 0.4154 -0.9096 -0.0000
vn -0.4154 -0.9096 -0.0000
vn -0.5406 -0.8413 -0.0000
vn -0.1423 -0.9898 -0.0000
vn -0.2817 -0.9595 -0.0000
vn -0.6549 -0.7557 -0.0000
vn -0.9096 -0.4154 -0.0000
vn -0.9595 -0.2817 -0.0000
vn -0.9898 -0.1423 -0.0000
vn -0.7558 -0.6549 -0.0000
vn -0.8413 -0.5406 -0.0000
vn -0.6549 -0.7558 -0.0000
vt -10.606510 0.223963
vt -6.082196 0.065617
vt 6.183208 0.065617
vt -10.586640 -0.053850
vt -5.803437 0.065617
vt -10.527436 -0.326007
vt -5.524678 0.065617
vt -10.430103 -0.586968
vt -5.245919 0.065617
vt -10.296621 -0.831422
vt -4.967159 0.065617
vt -10.129709 -1.054390
vt -4.688400 0.065617
vt -9.932764 -1.251335
vt -4.409641 0.065617
vt -9.709795 -1.418248
vt -4.130881 0.065617
vt -9.465343 -1.551729
vt -3.852123 0.065617
vt -9.204381 -1.649063
vt -3.573363 0.065617
vt -8.932223 -1.708267
vt -3.294605 0.065617
vt -8.654410 -1.728136
vt -3.015845 0.065617
vt -8.376598 -1.708267
vt -2.737085 0.065617
vt -8.104441 -1.649063
vt -2.458327 0.065617
vt -7.843479 -1.551729
vt -2.179567 0.065617
vt -7.599026 -1.418248
vt -1.900809 0.065617
vt -7.376057 -1.251335
vt -1.622049 0.065617
vt -7.179112 -1.054390
vt -1.343289 0.065617
vt -7.012200 -0.831422
vt -1.064531 0.065617
vt -6.878718 -0.586968
vt -0.785771 0.065617
vt -6.781385 -0.326007
vt -0.507013 0.065617
vt -6.722180 -0.053850
vt -0.228253 0.065617
vt -6.702311 0.223963
vt 0.050506 0.065617
vt -6.722180 0.501776
vt 0.329265 0.065617
vt -6.781385 0.773933
vt 0.608025 0.065617
vt -6.878718 1.034895
vt 0.886784 0.065617
vt -7.012200 1.279348
vt 1.165543 0.065617
vt -7.179112 1.502317
vt 1.444302 0.065617
vt -7.376057 1.699262
vt 1.723061 0.065617
vt -7.599026 1.866174
vt 2.001821 0.065617
vt -7.843479 1.999656
vt 2.280580 0.065617
vt -8.104441 2.096989
vt 2.559339 0.065617
vt -8.376598 2.156193
vt 2.838098 0.065617
vt -8.654410 2.176063
vt 3.116857 0.065617
vt -8.932223 2.156193
vt 3.395617 0.065617
vt -9.204381 2.096989
vt 3.674376 0.065617
vt -9.465343 1.999656
vt 3.953135 0.065617
vt -9.709795 1.866174
vt 4.231894 0.065617
vt -9.932764 1.699262
vt 4.510653 0.065617
vt -10.129709 1.502317
vt 4.789412 0.065617
vt -10.296621 1.279348
vt 5.068172 0.065617
vt -10.430103 1.034895
vt 5.346931 0.065617
vt -10.527436 0.773933
vt 5.625690 0.065617
vt -10.586640 0.501776
vt 5.904449 0.065617
vt -10.606510 -0.223963
vt -6.082196 0.000000
vt 6.183208 -0.000000
vt -10.586640 -0.501776
vt 5.904449 0.000000
vt -10.527436 -0.773933
vt 5.625690 -0.000000
vt -10.430103 -1.034895
vt 5.346931 0.000000
vt -10.296621 -1.279348
vt 5.068172 -0.000000
vt -10.129709 -1.502317
vt 4.789412 0.000000
vt -9.932764 -1.699262
vt 4.510653 0.000000
vt -9.709795 -1.866174
vt 4.231894 0.000000
vt -9.465343 -1.999656
vt 3.953135 0.000000
vt -9.204381 -2.096989
vt 3.674376 -0.000000
vt -8.932223 -2.156193
vt 3.395617 -0.000000
vt -8.654410 -2.176063
vt 3.116857 0.000000
vt -8.376598 -2.156193
vt 2.838098 0.000000
vt -8.104441 -2.096989
vt 2.559339 0.000000
vt -7.843479 -1.999656
vt 2.280580 0.000000
vt -7.599026 -1.866174
vt 2.001821 0.000000
vt -7.376057 -1.699262
vt 1.723061 0.000000
vt -7.179112 -1.502317
vt 1.444302 0.000000
vt -7.012200 -1.279348
vt 1.165543 -0.000000
vt -6.878718 -1.034895
vt 0.886784 0.000000
vt -6.781385 -0.773933
vt 0.608025 0.000000
vt -6.722180 -0.501776
vt 0.329265 -0.000000
vt -6.702311 -0.223963
vt 0.050506 0.000000
vt -6.722180 0.053850
vt -0.228253 0.000000
vt -6.781385 0.326007
vt -0.507013 0.000000
vt -6.878718 0.586968
vt -0.785771 0.000000
vt -7.012200 0.831422
vt -1.064531 0.000000
vt -7.179112 1.054390
vt -1.343289 0.000000
vt -7.376057 1.251335
vt -1.622049 -0.000000
vt -7.599026 1.418248
vt -1.900809 0.000000
vt -7.843479 1.551729
vt -2.179567 0.000000
vt -8.104441 1.649063
vt -2.458327 -0.000000
vt -8.376598 1.708267
vt -2.737085 0.000000
vt -8.654410 1.728136
vt -3.015845 0.000000
vt -8.932223 1.708267
vt -3.294605 0.000000
vt -9.204381 1.649063
vt -3.573363 -0.000000
vt -9.465343 1.551729
vt -3.852123 0.000000
vt -9.709795 1.418248
vt -4.130881 0.000000
vt -9.932764 1.251335
vt -4.409641 0.000000
vt -10.129709 1.054390
vt -4.688400 -0.000000
vt -10.296621 0.831422
vt -4.967159 0.000000
vt -10.430103 0.586968
vt -5.245919 -0.000000
vt -10.527436 0.326007
vt -5.524678 -0.000000
vt -10.586640 0.053850
vt -5.803437 -0.000000
s 1
f 16/32/1 17/34/1 14/28/1
f 14/28/1 15/30/1 16/32/1
f 6/12/1 13/26/1 14/28/1
f 14/28/1 17/34/1 18/36/1
f 6/12/1 14/28/1 21/42/1
f 21/42/1 1/1/1 4/8/1
f 19/38/1 20/40/1 21/42/1
f 19/38/1 21/42/1 18/36/1
f 18/36/1 21/42/1 14/28/1
f 22/44/1 1/1/1 21/42/1
f 6/12/1 10/20/1 11/22/1
f 10/20/1 8/16/1 9/18/1
f 6/12/1 8/16/1 10/20/1
f 12/24/1 13/26/1 11/22/1
f 6/12/1 4/8/1 5/10/1
f 6/12/1 7/14/1 8/16/1
f 3/6/1 1/1/1 2/4/1
f 11/22/1 13/26/1 6/12/1
f 6/12/1 21/42/1 4/8/1
f 3/6/1 4/8/1 1/1/1
f 22/44/1 23/46/1 24/48/1
f 24/48/1 25/50/1 27/54/1
f 24/48/1 27/54/1 30/60/1
f 27/54/1 25/50/1 26/52/1
f 30/60/1 27/54/1 28/56/1
f 1/1/1 24/48/1 30/60/1
f 32/64/1 30/60/1 31/62/1
f 33/66/1 34/68/1 30/60/1
f 33/66/1 30/60/1 32/64/1
f 30/60/1 28/56/1 29/58/1
f 1/1/1 30/60/1 34/68/1
f 41/82/1 42/84/1 43/86/1
f 1/1/1 43/86/1 44/88/1
f 43/86/1 1/1/1 41/82/1
f 41/82/1 1/1/1 36/72/1
f 41/82/1 36/72/1 38/76/1
f 38/76/1 36/72/1 37/74/1
f 39/78/1 40/80/1 41/82/1
f 41/82/1 38/76/1 39/78/1
f 34/68/1 36/72/1 1/1/1
f 34/68/1 35/70/1 36/72/1
f 24/48/1 1/1/1 22/44/1
f 59/119/2 60/121/2 57/115/2
f 57/115/2 58/117/2 59/119/2
f 57/115/2 60/121/2 56/113/2
f 56/113/2 60/121/2 54/109/2
f 63/127/2 64/129/2 65/131/2
f 63/127/2 65/131/2 66/133/2
f 62/125/2 63/127/2 60/121/2
f 63/127/2 66/133/2 60/121/2
f 61/123/2 62/125/2 60/121/2
f 49/99/2 60/121/2 66/133/2
f 52/105/2 54/109/2 60/121/2
f 54/109/2 52/105/2 53/107/2
f 51/103/2 52/105/2 49/99/2
f 55/111/2 56/113/2 54/109/2
f 49/99/2 47/95/2 48/97/2
f 49/99/2 50/101/2 51/103/2
f 47/95/2 45/90/2 46/93/2
f 86/173/2 47/95/2 49/99/2
f 49/99/2 52/105/2 60/121/2
f 45/90/2 47/95/2 86/173/2
f 69/139/2 49/99/2 66/133/2
f 68/137/2 69/139/2 66/133/2
f 69/139/2 70/141/2 71/143/2
f 49/99/2 69/139/2 86/173/2
f 71/143/2 72/145/2 69/139/2
f 76/153/2 72/145/2 73/147/2
f 76/153/2 73/147/2 74/149/2
f 76/153/2 86/173/2 69/139/2
f 76/153/2 74/149/2 75/151/2
f 76/153/2 69/139/2 72/145/2
f 76/153/2 77/155/2 86/173/2
f 84/169/2 85/171/2 86/173/2
f 45/90/2 87/175/2 88/177/2
f 86/173/2 77/155/2 84/169/2
f 45/90/2 86/173/2 87/175/2
f 84/169/2 79/159/2 80/161/2
f 84/169/2 80/161/2 82/165/2
f 82/165/2 83/167/2 84/169/2
f 82/165/2 80/161/2 81/163/2
f 77/155/2 79/159/2 84/169/2
f 79/159/2 77/155/2 78/157/2
f 68/137/2 66/133/2 67/135/2
f 86/174/3 85/172/4 4/9/3
f 45/91/5 88/178/6 2/5/6
f 84/170/7 5/11/4 85/172/4
f 9/19/8 81/164/8 80/162/9
f 10/21/9 80/162/9 79/160/10
f 7/15/11 83/168/12 82/166/13
f 8/17/13 82/166/13 81/164/8
f 83/168/12 6/13/7 84/170/7
f 11/23/10 79/160/10 78/158/14
f 2/5/6 87/176/15 3/7/15
f 2/5/6 1/2/5 45/91/5
f 87/176/15 86/174/3 3/7/15
f 3/7/15 86/174/3 4/9/3
f 5/11/4 4/9/3 85/172/4
f 2/5/6 88/178/6 87/176/15
f 6/13/7 5/11/4 84/170/7
f 7/15/11 6/13/7 83/168/12
f 7/15/11 82/166/13 8/17/13
f 9/19/8 8/17/13 81/164/8
f 10/21/9 9/19/8 80/162/9
f 79/160/10 11/23/10 10/21/9
f 78/158/14 12/25/14 11/23/10
f 15/31/16 75/152/16 74/150/17
f 13/27/18 77/156/18 76/154/19
f 75/152/16 14/29/19 76/154/19
f 16/33/17 74/150/17 73/148/20
f 20/41/21 70/142/21 69/140/22
f 21/43/22 69/140/22 68/138/23
f 18/37/24 72/146/24 71/144/25
f 19/39/25 71/144/25 70/142/21
f 72/146/24 17/35/20 73/148/20
f 22/45/23 68/138/23 67/136/26
f 77/156/18 13/27/18 12/25/14
f 76/154/19 14/29/19 13/27/18
f 15/31/16 14/29/19 75/152/16
f 74/150/17 16/33/17 15/31/16
f 17/35/20 16/33/17 73/148/20
f 18/37/24 17/35/20 72/146/24
f 19/39/25 18/37/24 71/144/25
f 19/39/25 70/142/21 20/41/21
f 21/43/22 20/41/21 69/140/22
f 22/45/23 21/43/22 68/138/23
f 67/136/26 23/47/26 22/45/23
f 77/156/18 12/25/14 78/158/14
f 66/134/27 24/49/27 67/136/26
f 64/130/28 26/53/28 65/132/29
f 25/51/29 66/134/27 65/132/29
f 27/55/30 64/130/28 63/128/30
f 58/118/31 57/116/32 32/65/31
f 62/126/33 61/124/34 29/59/34
f 57/116/32 56/114/35 33/67/32
f 63/128/30 62/126/33 28/57/33
f 61/124/34 60/122/36 30/61/36
f 63/128/30 28/57/33 27/55/30
f 64/130/28 27/55/30 26/53/28
f 66/134/27 25/51/29 24/49/27
f 25/51/29 65/132/29 26/53/28
f 24/49/27 23/47/26 67/136/26
f 30/61/36 59/120/37 31/63/37
f 30/61/36 29/59/34 61/124/34
f 59/120/37 58/118/31 31/63/37
f 31/63/37 58/118/31 32/65/31
f 57/116/32 33/67/32 32/65/31
f 29/59/34 28/57/33 62/126/33
f 60/122/36 59/120/37 30/61/36
f 56/114/35 34/69/35 33/67/32
f 37/75/38 53/108/38 52/106/39
f 35/71/40 55/112/40 54/110/41
f 53/108/38 36/73/41 54/110/41
f 38/77/39 52/106/39 51/104/42
f 42/85/43 48/98/43 47/96/44
f 43/87/44 47/96/44 46/94/45
f 40/81/46 50/102/46 49/100/47
f 41/83/47 49/100/47 48/98/43
f 50/102/46 39/79/48 51/104/42
f 44/89/45 46/94/45 45/92/5
f 55/112/40 35/71/40 34/69/35
f 54/110/41 36/73/41 35/71/40
f 37/75/38 36/73/41 53/108/38
f 52/106/39 38/77/39 37/75/38
f 39/79/48 38/77/39 51/104/42
f 40/81/46 39/79/48 50/102/46
f 41/83/47 40/81/46 49/100/47
f 41/83/47 48/98/43 42/85/43
f 43/87/44 42/85/43 47/96/44
f 44/89/45 43/87/44 46/94/45
f 45/92/5 1/3/5 44/89/45
f 55/112/40 34/69/35 56/114/35
